<svg width="36" height="36" viewBox="0 0 36 36" fill="none" xmlns="http://www.w3.org/2000/svg">
<g clip-path="url(#clip0_16_876)">
<path d="M15.8099 34.875H14.3879C14.3879 34.875 13.0649 31.527 13.2689 29.139L16.1869 29.688C16.7349 31.259 15.8099 34.875 15.8099 34.875ZM20.1269 34.875H21.5489C21.5489 34.875 22.8719 31.527 22.6679 29.139L19.7499 29.688C19.2019 31.259 20.1269 34.875 20.1269 34.875Z" fill="#F7DECE"/>
<path d="M13.617 35.149C13.723 34.906 13.948 34.455 13.972 34.194C13.996 33.933 14.008 33.84 14.222 33.768C14.584 33.647 15.718 33.681 15.913 33.752C16.107 33.823 16.11 34.015 16.138 34.176C16.166 34.337 16.256 34.6 16.375 34.816C16.494 35.032 16.801 35.513 16.647 35.85C16.583 35.99 16.225 35.988 15.078 35.988C13.931 35.988 13.602 35.962 13.524 35.87C13.444 35.778 13.51 35.393 13.617 35.149ZM22.321 35.149C22.215 34.906 21.99 34.455 21.966 34.194C21.942 33.933 21.93 33.84 21.716 33.768C21.354 33.647 20.22 33.681 20.025 33.752C19.831 33.823 19.828 34.015 19.8 34.176C19.772 34.337 19.682 34.6 19.563 34.816C19.445 35.032 19.137 35.513 19.291 35.85C19.355 35.99 19.713 35.988 20.86 35.988C22.007 35.988 22.336 35.962 22.414 35.87C22.492 35.778 22.427 35.393 22.321 35.149Z" fill="#4289C1"/>
<path d="M8.64599 4.14605C8.65699 4.27305 9.51699 5.68105 9.96899 6.78105C10.421 7.88105 10.679 8.97905 10.917 9.22905C11.393 9.72805 13.202 11.1081 14.188 12.5721C15.173 14.0361 14.758 15.0751 14.094 15.4941C13.214 16.0491 12.291 15.6981 11.657 14.7061C10.7174 13.1884 9.80427 11.6545 8.91799 10.1051C8.61199 9.56405 7.89999 8.59305 7.46899 7.53105C7.06299 6.53105 7.01499 5.36305 6.95399 5.21905C6.77499 4.79405 6.07599 4.24205 6.04199 3.81205C6.04199 3.81205 8.60899 3.71705 8.64599 4.14605ZM27.354 4.14605C27.343 4.27305 26.483 5.68105 26.031 6.78105C25.579 7.88105 25.321 8.97905 25.083 9.22905C24.607 9.72805 22.798 11.1081 21.812 12.5721C20.827 14.0361 21.242 15.0751 21.906 15.4941C22.786 16.0491 23.709 15.6981 24.343 14.7061C24.794 14.0001 26.294 11.4971 27.082 10.1051C27.386 9.56505 28.099 8.59405 28.53 7.53205C28.936 6.53205 28.984 5.36405 29.045 5.22005C29.223 4.79505 29.923 4.24305 29.957 3.81405C29.958 3.81205 27.391 3.71705 27.354 4.14605Z" fill="#F7DECE"/>
<path d="M36 3.5C36 3.63261 35.9473 3.75979 35.8536 3.85355C35.7598 3.94732 35.6326 4 35.5 4H0.5C0.367392 4 0.240215 3.94732 0.146447 3.85355C0.0526784 3.75979 0 3.63261 0 3.5C0 3.36739 0.0526784 3.24021 0.146447 3.14645C0.240215 3.05268 0.367392 3 0.5 3H35.5C35.6326 3 35.7598 3.05268 35.8536 3.14645C35.9473 3.24021 36 3.36739 36 3.5Z" fill="#99AAB5"/>
<path d="M34 0C33.7348 0 33.4804 0.105357 33.2929 0.292893C33.1054 0.48043 33 0.734784 33 1C33 0.734784 32.8946 0.48043 32.7071 0.292893C32.5196 0.105357 32.2652 0 32 0C31.7348 0 31.4804 0.105357 31.2929 0.292893C31.1054 0.48043 31 0.734784 31 1V6C31 6.26522 31.1054 6.51957 31.2929 6.70711C31.4804 6.89464 31.7348 7 32 7C32.2652 7 32.5196 6.89464 32.7071 6.70711C32.8946 6.51957 33 6.26522 33 6C33 6.26522 33.1054 6.51957 33.2929 6.70711C33.4804 6.89464 33.7348 7 34 7C34.2652 7 34.5196 6.89464 34.7071 6.70711C34.8946 6.51957 35 6.26522 35 6V1C35 0.734784 34.8946 0.48043 34.7071 0.292893C34.5196 0.105357 34.2652 0 34 0V0ZM4 0C3.73478 0 3.48043 0.105357 3.29289 0.292893C3.10536 0.48043 3 0.734784 3 1C3 0.734784 2.89464 0.48043 2.70711 0.292893C2.51957 0.105357 2.26522 0 2 0C1.73478 0 1.48043 0.105357 1.29289 0.292893C1.10536 0.48043 1 0.734784 1 1V6C1 6.26522 1.10536 6.51957 1.29289 6.70711C1.48043 6.89464 1.73478 7 2 7C2.26522 7 2.51957 6.89464 2.70711 6.70711C2.89464 6.51957 3 6.26522 3 6C3 6.26522 3.10536 6.51957 3.29289 6.70711C3.48043 6.89464 3.73478 7 4 7C4.26522 7 4.51957 6.89464 4.70711 6.70711C4.89464 6.51957 5 6.26522 5 6V1C5 0.734784 4.89464 0.48043 4.70711 0.292893C4.51957 0.105357 4.26522 0 4 0V0Z" fill="#292F33"/>
<path d="M24.9181 13.806C24.2931 13.223 22.1721 12.083 22.1721 12.083C21.4301 12.502 20.8891 13.34 20.6801 13.7C20.0151 13.817 19.5291 14 19.5291 14H16.4701C16.4701 14 15.9841 13.817 15.3191 13.7C15.1101 13.34 14.5691 12.503 13.8271 12.083C13.8271 12.083 11.7061 13.223 11.0811 13.806C11.2911 14.343 11.5731 14.853 11.7971 15.223C12.0521 16.513 12.9431 17.986 13.0781 18.236C13.4961 19.016 14.0001 22.5 14.0001 22.5L18.0001 24L22.0001 22.5C22.0001 22.5 22.5041 19.016 22.9221 18.236C23.0561 17.986 23.9471 16.512 24.2031 15.223C24.4809 14.7717 24.7201 14.2977 24.9181 13.806Z" fill="#4289C1"/>
<path d="M16.4709 11.412V14.471C16.4709 14.8765 16.632 15.2654 16.9188 15.5522C17.2055 15.8389 17.5944 16 17.9999 16C18.4055 16 18.7944 15.8389 19.0811 15.5522C19.3679 15.2654 19.5289 14.8765 19.5289 14.471V11.412H16.4709Z" fill="#F7DECE"/>
<path d="M18.375 3.35303C17.485 3.35303 16.663 3.63703 15.989 4.11603C15.3183 4.14935 14.686 4.43893 14.2226 4.925C13.7593 5.41106 13.5002 6.05649 13.499 6.72803C13.499 7.88403 13.504 9.34103 15.028 9.88403C15.4403 10.4582 15.9933 10.9168 16.6339 11.2159C17.2744 11.5149 17.9811 11.6442 18.686 11.5916C19.391 11.5389 20.0706 11.3059 20.6596 10.915C21.2486 10.5241 21.7273 9.98845 22.0497 9.35934C22.3721 8.73023 22.5274 8.02882 22.5007 7.32241C22.4741 6.616 22.2663 5.9283 21.8974 5.32529C21.5285 4.72228 21.0108 4.22419 20.394 3.87883C19.7771 3.53346 19.0819 3.35241 18.375 3.35303Z" fill="#292F33"/>
<path d="M21.75 5.60205H14.25V10.1021C14.25 11.0966 14.6451 12.0504 15.3483 12.7537C16.0516 13.457 17.0054 13.8521 18 13.8521C18.9946 13.8521 19.9484 13.457 20.6517 12.7537C21.3549 12.0504 21.75 11.0966 21.75 10.1021V5.60205Z" fill="#F7DECE"/>
<path d="M17.9999 4L14.0759 5.533V8.672C15.9069 8.672 16.3119 6.779 16.4029 5.935C16.4339 6.779 17.0419 8.672 21.9229 8.672V5.533L17.9999 4Z" fill="#292F33"/>
<path d="M19.5 12.353H16.5C16.5 12.353 16.5 13.103 18 13.103C19.5 13.103 19.5 12.353 19.5 12.353Z" fill="#C1694F"/>
<path d="M16.125 10.103C16.3321 10.103 16.5 9.93513 16.5 9.72803C16.5 9.52092 16.3321 9.35303 16.125 9.35303C15.9179 9.35303 15.75 9.52092 15.75 9.72803C15.75 9.93513 15.9179 10.103 16.125 10.103Z" fill="#662113"/>
<path d="M20.25 9.72803C20.25 9.82748 20.2105 9.92287 20.1402 9.99319C20.0698 10.0635 19.9745 10.103 19.875 10.103C19.7755 10.103 19.6802 10.0635 19.6098 9.99319C19.5395 9.92287 19.5 9.82748 19.5 9.72803C19.5 9.62857 19.5395 9.53319 19.6098 9.46286C19.6802 9.39254 19.7755 9.35303 19.875 9.35303C19.9745 9.35303 20.0698 9.39254 20.1402 9.46286C20.2105 9.53319 20.25 9.62857 20.25 9.72803Z" fill="#662113"/>
<path d="M17.25 10.853H18.75C18.75 10.853 18.75 11.603 18 11.603C17.25 11.603 17.25 10.853 17.25 10.853Z" fill="#C1694F"/>
<path d="M27.096 4.363C26.766 4.206 26.62 3.935 26.719 3.644L26.722 3.634C26.821 3.343 27.013 3.288 27.46 3.295C27.46 3.295 28.981 3.371 29.897 4.007C29.897 4.007 29.698 4.311 29.45 4.567L29.447 4.577C29.346 4.867 27.833 4.714 27.096 4.363Z" fill="#F7DECE"/>
<path d="M27.8429 3.46994C27.777 3.45361 27.7202 3.41183 27.6849 3.35374C27.6497 3.29565 27.6389 3.22597 27.6549 3.15994L27.7419 2.80294C27.7749 2.66594 27.9149 2.58194 28.0519 2.61494C28.1889 2.64794 28.2729 2.78794 28.2399 2.92494L28.1529 3.28194C28.1363 3.34775 28.0945 3.40438 28.0365 3.43957C27.9785 3.47476 27.9089 3.48567 27.8429 3.46994ZM27.3979 2.59994C27.3191 2.57386 27.2332 2.57993 27.1589 2.61681C27.0846 2.6537 27.0278 2.71843 27.0009 2.79694L26.7219 3.63394C26.6669 3.79794 26.8899 3.56594 27.0539 3.62094C27.1325 3.64734 27.2184 3.64154 27.2928 3.60482C27.3672 3.5681 27.424 3.50343 27.4509 3.42494L27.5949 2.99794C27.621 2.91903 27.615 2.833 27.5781 2.7585C27.5412 2.68401 27.4765 2.62704 27.3979 2.59994Z" fill="#F7DECE"/>
<path d="M28.384 3.39899C28.318 3.38266 28.2612 3.34088 28.226 3.28279C28.1907 3.22469 28.1799 3.15501 28.196 3.08899L28.278 2.75499C28.311 2.61799 28.451 2.53399 28.588 2.56699C28.725 2.59999 28.809 2.73999 28.776 2.87699L28.694 3.21099C28.6774 3.27679 28.6356 3.33343 28.5775 3.36862C28.5195 3.4038 28.45 3.41472 28.384 3.39899Z" fill="#F7DECE"/>
<path d="M28.9001 3.42402C28.8341 3.40769 28.7773 3.36591 28.7421 3.30782C28.7069 3.24972 28.6961 3.18005 28.7121 3.11402L28.7801 2.83702C28.8131 2.70002 28.9531 2.61602 29.0901 2.64902C29.2271 2.68202 29.3111 2.82202 29.2781 2.95902L29.2101 3.23602C29.1935 3.30183 29.1517 3.35846 29.0937 3.39365C29.0356 3.42884 28.9661 3.43975 28.9001 3.42402Z" fill="#F7DECE"/>
<path d="M29.4191 3.44696C29.3532 3.43063 29.2964 3.38885 29.2611 3.33076C29.2259 3.27266 29.2151 3.20299 29.2311 3.13696L29.2711 2.97496C29.3041 2.83796 29.4441 2.75396 29.5811 2.78696C29.7181 2.81996 29.8021 2.95996 29.7691 3.09696L29.7291 3.25896C29.7128 3.32491 29.671 3.3817 29.6129 3.41694C29.5548 3.45217 29.4851 3.46296 29.4191 3.44696Z" fill="#F7DECE"/>
<path d="M8.90403 4.36299C9.23403 4.20599 9.38003 3.93499 9.28103 3.64399L9.27803 3.63399C9.17903 3.34399 8.98703 3.28799 8.54003 3.29499C8.54003 3.29499 7.01903 3.37099 6.10303 4.00699C6.10303 4.00699 6.30203 4.31099 6.55003 4.56699L6.55303 4.57699C6.65403 4.86699 8.16703 4.71399 8.90403 4.36299Z" fill="#F7DECE"/>
<path d="M8.15696 3.47006C8.22291 3.45373 8.27971 3.41196 8.31494 3.35386C8.35017 3.29577 8.36096 3.22609 8.34496 3.16006L8.25796 2.80306C8.24163 2.73712 8.19985 2.68032 8.14176 2.64509C8.08366 2.60986 8.01399 2.59906 7.94796 2.61506C7.88215 2.63163 7.82552 2.67345 7.79033 2.73148C7.75514 2.7895 7.74423 2.85905 7.75996 2.92506L7.84696 3.28206C7.86352 3.34787 7.90534 3.4045 7.96337 3.43969C8.02139 3.47488 8.09094 3.48579 8.15696 3.47006ZM8.60196 2.60006C8.68074 2.57399 8.76663 2.58005 8.84096 2.61694C8.9153 2.65382 8.97207 2.71855 8.99896 2.79706L9.27796 3.63406C9.33296 3.79806 9.10996 3.56606 8.94596 3.62106C8.86731 3.64746 8.78142 3.64167 8.70703 3.60494C8.63265 3.56822 8.57582 3.50355 8.54896 3.42506L8.40496 2.99806C8.37885 2.91915 8.38488 2.83312 8.42176 2.75862C8.45863 2.68413 8.52337 2.62716 8.60196 2.60006Z" fill="#F7DECE"/>
<path d="M7.61606 3.39905C7.68201 3.38272 7.73881 3.34094 7.77404 3.28285C7.80927 3.22475 7.82006 3.15507 7.80406 3.08905L7.72206 2.75505C7.70573 2.6891 7.66395 2.6323 7.60586 2.59707C7.54777 2.56184 7.47809 2.55104 7.41206 2.56705C7.3463 2.58359 7.28974 2.62546 7.25471 2.68353C7.21968 2.7416 7.20903 2.81116 7.22506 2.87705L7.30706 3.21105C7.32317 3.27692 7.36475 3.33371 7.42268 3.36896C7.48061 3.4042 7.55016 3.41502 7.61606 3.39905Z" fill="#F7DECE"/>
<path d="M7.10001 3.42409C7.16596 3.40776 7.22276 3.36598 7.25799 3.30789C7.29322 3.2498 7.30401 3.18012 7.28801 3.11409L7.22001 2.83709C7.21287 2.80356 7.19907 2.7718 7.17942 2.7437C7.15978 2.71561 7.13469 2.69174 7.10564 2.67352C7.0766 2.65531 7.04419 2.64311 7.01034 2.63766C6.97649 2.63221 6.94189 2.63361 6.90859 2.64178C6.8753 2.64995 6.84398 2.66473 6.81651 2.68524C6.78903 2.70575 6.76595 2.73156 6.74864 2.76116C6.73133 2.79075 6.72015 2.82352 6.71574 2.85752C6.71134 2.89153 6.71381 2.92606 6.72301 2.95909L6.79101 3.23609C6.80711 3.30196 6.8487 3.35876 6.90663 3.394C6.96456 3.42925 7.03411 3.44007 7.10001 3.42409Z" fill="#F7DECE"/>
<path d="M6.58113 3.44706C6.64707 3.43073 6.70387 3.38895 6.7391 3.33086C6.77433 3.27276 6.78513 3.20309 6.76913 3.13706L6.73013 2.97506C6.71356 2.90925 6.67174 2.85262 6.61371 2.81743C6.55569 2.78224 6.48614 2.77133 6.42013 2.78706C6.35432 2.80362 6.29768 2.84544 6.2625 2.90347C6.22731 2.96149 6.2164 3.03104 6.23213 3.09706L6.27213 3.25906C6.28823 3.32493 6.32981 3.38172 6.38774 3.41697C6.44567 3.45221 6.51522 3.46304 6.58113 3.44706Z" fill="#F7DECE"/>
<path d="M22 24.5L18 23L14 24.5C14 24.5 13.146 26.417 13 29.688H16.187C17.104 28.709 17.437 26.084 17.437 26.084H18.562C18.562 26.084 18.895 28.709 19.812 29.688H23C22.854 26.417 22 24.5 22 24.5Z" fill="#3A6693"/>
<path d="M14 22.5H22V24.5H14V22.5Z" fill="#C1694F"/>
<path d="M19 22.399H19.65V24.608H19V22.399Z" fill="#14171A"/>
<path d="M18.5 23.625C18.5922 23.625 18.667 23.5502 18.667 23.458C18.667 23.3658 18.5922 23.291 18.5 23.291C18.4078 23.291 18.333 23.3658 18.333 23.458C18.333 23.5502 18.4078 23.625 18.5 23.625Z" fill="#14171A"/>
<path d="M18.021 23.458C18.021 23.5023 18.0034 23.5448 17.9721 23.5761C17.9408 23.6074 17.8983 23.625 17.854 23.625C17.8097 23.625 17.7672 23.6074 17.7359 23.5761C17.7046 23.5448 17.687 23.5023 17.687 23.458C17.687 23.4137 17.7046 23.3712 17.7359 23.3399C17.7672 23.3086 17.8097 23.291 17.854 23.291C17.8983 23.291 17.9408 23.3086 17.9721 23.3399C18.0034 23.3712 18.021 23.4137 18.021 23.458Z" fill="#14171A"/>
<path d="M17.208 23.625C17.3002 23.625 17.375 23.5502 17.375 23.458C17.375 23.3658 17.3002 23.291 17.208 23.291C17.1158 23.291 17.041 23.3658 17.041 23.458C17.041 23.5502 17.1158 23.625 17.208 23.625Z" fill="#14171A"/>
<path d="M16.562 23.625C16.6543 23.625 16.729 23.5502 16.729 23.458C16.729 23.3658 16.6543 23.291 16.562 23.291C16.4698 23.291 16.395 23.3658 16.395 23.458C16.395 23.5502 16.4698 23.625 16.562 23.625Z" fill="#14171A"/>
<path d="M15.917 23.625C16.0092 23.625 16.084 23.5502 16.084 23.458C16.084 23.3658 16.0092 23.291 15.917 23.291C15.8248 23.291 15.75 23.3658 15.75 23.458C15.75 23.5502 15.8248 23.625 15.917 23.625Z" fill="#14171A"/>
<path d="M15.271 23.625C15.3632 23.625 15.438 23.5502 15.438 23.458C15.438 23.3658 15.3632 23.291 15.271 23.291C15.1788 23.291 15.104 23.3658 15.104 23.458C15.104 23.5502 15.1788 23.625 15.271 23.625Z" fill="#14171A"/>
<path d="M14.625 23.625C14.7172 23.625 14.792 23.5502 14.792 23.458C14.792 23.3658 14.7172 23.291 14.625 23.291C14.5328 23.291 14.458 23.3658 14.458 23.458C14.458 23.5502 14.5328 23.625 14.625 23.625Z" fill="#14171A"/>
<path d="M17.208 23.625C17.3002 23.625 17.375 23.5502 17.375 23.458C17.375 23.3658 17.3002 23.291 17.208 23.291C17.1158 23.291 17.041 23.3658 17.041 23.458C17.041 23.5502 17.1158 23.625 17.208 23.625Z" fill="#14171A"/>
<path d="M16.553 23.6061C16.6348 23.6061 16.701 23.5398 16.701 23.4581C16.701 23.3763 16.6348 23.3101 16.553 23.3101C16.4713 23.3101 16.405 23.3763 16.405 23.4581C16.405 23.5398 16.4713 23.6061 16.553 23.6061Z" fill="#657786"/>
<path d="M16.3181 23.3101H16.5531V23.6071H16.3181V23.3101Z" fill="#657786"/>
<path d="M16.7289 24.846H15.9709V22.149H16.7289V22.499H16.3199V24.496H16.7289V24.846Z" fill="#657786"/>
</g>
<defs>
<clipPath id="clip0_16_876">
<rect width="36" height="36" fill="white"/>
</clipPath>
</defs>
</svg>
