<svg width="36" height="36" viewBox="0 0 36 36" fill="none" xmlns="http://www.w3.org/2000/svg">
<path d="M16.4279 30.331C16.9299 30.6822 17.5508 30.8197 18.1541 30.7132C18.7574 30.6067 19.2937 30.2649 19.6449 29.763C19.7054 29.677 19.7483 29.5799 19.7711 29.4773C19.7939 29.3747 19.7963 29.2685 19.778 29.165C19.7597 29.0615 19.7211 28.9626 19.6644 28.8741C19.6078 28.7855 19.5342 28.709 19.4479 28.649L17.5979 26.7L21.8199 29.655C21.9812 29.7683 22.1633 29.8487 22.3556 29.8915C22.548 29.9343 22.747 29.9386 22.9411 29.9043C23.1352 29.8701 23.3206 29.7978 23.4867 29.6917C23.6528 29.5856 23.7963 29.4477 23.9089 29.286C24.0219 29.1246 24.1019 28.9425 24.1445 28.7502C24.1871 28.5579 24.1914 28.359 24.1571 28.165C24.1228 27.9711 24.0507 27.7857 23.9448 27.6196C23.8389 27.4535 23.7013 27.3099 23.5399 27.197L19.9439 23.892L25.3189 27.655C25.4802 27.7683 25.6623 27.8487 25.8546 27.8915C26.047 27.9343 26.246 27.9386 26.4401 27.9043C26.6342 27.8701 26.8196 27.7978 26.9857 27.6917C27.1518 27.5856 27.2953 27.4477 27.4079 27.286C27.5209 27.1246 27.6009 26.9425 27.6435 26.7502C27.6861 26.5579 27.6904 26.359 27.6561 26.165C27.6218 25.9711 27.5497 25.7857 27.4438 25.6196C27.3379 25.4535 27.2003 25.3099 27.0389 25.197L22.2729 21.124L28.1369 25.229C28.2982 25.3423 28.4803 25.4227 28.6726 25.4655C28.865 25.5083 29.064 25.5126 29.2581 25.4783C29.4522 25.4441 29.6376 25.3718 29.8037 25.2657C29.9698 25.1596 30.1133 25.0217 30.2259 24.86C30.3389 24.6986 30.4189 24.5165 30.4615 24.3242C30.5041 24.1319 30.5084 23.933 30.4741 23.739C30.4398 23.5451 30.3677 23.3597 30.2618 23.1936C30.1559 23.0275 30.0183 22.8839 29.8569 22.771L4.73295 11.194L1.26595 16.715C0.876946 17.315 0.982946 18.128 1.54195 18.606L9.32795 25.277C9.68295 25.581 10.0519 25.868 10.4349 26.136L16.4279 30.331Z" fill="#E0AA94"/>
<path d="M29.802 21.752L18.5 13.601L18.441 13.521L18.494 13.441L18.547 13.388L19.401 13.857C20.359 14.477 22.548 15.393 24.207 15.393C25.342 15.393 26.022 14.968 26.225 14.136C26.2867 13.7683 26.2001 13.391 25.9841 13.087C25.7682 12.7829 25.4405 12.5769 25.073 12.514C24.0695 12.3643 23.1124 11.9915 22.272 11.423L21.717 11.05C21.093 10.629 20.386 10.152 19.864 9.84403C19.214 9.45003 18.507 9.25903 17.701 9.25903C16.505 9.25903 15.29 9.68103 14.116 10.089L12.85 10.525C12.3037 10.7091 11.7304 10.8007 11.154 10.796C9.60997 10.796 8.09897 10.21 6.63797 9.64403L6.49097 9.58603C6.19028 9.47089 5.85893 9.46378 5.55357 9.56593C5.24822 9.66807 4.98785 9.87313 4.81697 10.146L1.34997 15.669C1.17346 15.9443 1.10226 16.274 1.14948 16.5975C1.1967 16.9211 1.35916 17.2167 1.60697 17.43L9.39197 24.102C9.74397 24.403 10.114 24.69 10.492 24.954L16.657 29.27C16.8721 29.4208 17.1149 29.5276 17.3713 29.5845C17.6278 29.6415 17.893 29.6473 18.1517 29.6017C18.4104 29.5561 18.6576 29.46 18.8792 29.3188C19.1007 29.1777 19.2923 28.9942 19.443 28.779C19.5642 28.605 19.6116 28.39 19.5749 28.1811C19.5382 27.9722 19.4203 27.7863 19.247 27.664L17.414 26.381C17.3661 26.3473 17.3257 26.3041 17.2953 26.254C17.2649 26.2039 17.2453 26.1481 17.2376 26.09C17.2299 26.0319 17.2343 25.9729 17.2505 25.9166C17.2668 25.8604 17.2945 25.8081 17.332 25.763C17.3998 25.6816 17.4958 25.6287 17.6008 25.6148C17.7059 25.6009 17.8123 25.6271 17.899 25.688L21.878 28.473C22.1822 28.686 22.5585 28.7694 22.9242 28.7049C23.2899 28.6404 23.615 28.4332 23.828 28.129C24.0409 27.8248 24.1243 27.4485 24.0598 27.0828C23.9953 26.7171 23.7882 26.392 23.484 26.179L19.76 23.573C19.7121 23.5393 19.6717 23.4961 19.6413 23.446C19.6109 23.3959 19.5913 23.3401 19.5836 23.282C19.5759 23.2239 19.5803 23.1649 19.5965 23.1086C19.6128 23.0524 19.6405 23.0001 19.678 22.955C19.7459 22.8738 19.8419 22.8211 19.9469 22.8072C20.0519 22.7933 20.1582 22.8193 20.245 22.88L25.377 26.473C25.5276 26.5785 25.6975 26.6532 25.877 26.693C26.0565 26.7328 26.2421 26.7368 26.4232 26.7049C26.6043 26.6729 26.7773 26.6057 26.9324 26.5068C27.0874 26.408 27.2215 26.2797 27.327 26.129C27.4324 25.9784 27.5072 25.8085 27.547 25.629C27.5867 25.4495 27.5908 25.2639 27.5588 25.0828C27.5269 24.9017 27.4596 24.7287 27.3608 24.5736C27.262 24.4186 27.1336 24.2845 26.983 24.179L22.115 20.772C22.0666 20.7387 22.0258 20.6955 21.9952 20.6454C21.9646 20.5953 21.9448 20.5393 21.9372 20.481C21.9296 20.4228 21.9342 20.3636 21.9509 20.3073C21.9676 20.2509 21.9959 20.1987 22.034 20.154C22.0947 20.0816 22.1804 20.0346 22.2741 20.0224C22.3678 20.0102 22.4627 20.0336 22.54 20.088L28.196 24.047C28.3467 24.1525 28.5166 24.2272 28.6962 24.267C28.8758 24.3067 29.0614 24.3107 29.2426 24.2787C29.4237 24.2468 29.5967 24.1794 29.7518 24.0805C29.9069 23.9817 30.041 23.8532 30.1465 23.7025C30.2519 23.5518 30.3267 23.3819 30.3664 23.2023C30.4062 23.0227 30.4102 22.8371 30.3782 22.6559C30.3462 22.4748 30.2788 22.3018 30.18 22.1467C30.0811 21.9916 29.9527 21.8575 29.802 21.752Z" fill="#F7DECE"/>
<path d="M16.536 27.929C16.466 28.196 16.329 28.427 16.147 28.61L15.143 29.606C14.9591 29.792 14.7296 29.9265 14.4774 29.996C14.2253 30.0655 13.9592 30.0676 13.706 30.002C13.4504 29.9354 13.2168 29.8025 13.029 29.6168C12.8412 29.431 12.7058 29.1989 12.6365 28.944C12.5672 28.689 12.5664 28.4203 12.6343 28.165C12.7022 27.9097 12.8363 27.6769 13.023 27.49L14.027 26.494C14.2109 26.308 14.4404 26.1735 14.6926 26.104C14.9448 26.0345 15.2108 26.0324 15.464 26.098C15.8487 26.1991 16.1777 26.4486 16.3786 26.7918C16.5796 27.1351 16.6362 27.5441 16.536 27.929ZM5.99202 23.008L7.49502 21.511C7.66687 21.3394 7.79448 21.1286 7.86686 20.8967C7.93924 20.6649 7.95424 20.4189 7.91057 20.18C7.8669 19.941 7.76585 19.7163 7.61613 19.525C7.46641 19.3338 7.27248 19.1818 7.05102 19.082C6.77359 18.9572 6.46469 18.9201 6.16558 18.9754C5.86647 19.0308 5.59137 19.1762 5.37702 19.392L3.87402 20.889C3.70219 21.0607 3.57464 21.2716 3.50233 21.5035C3.43002 21.7354 3.41511 21.9814 3.45888 22.2203C3.50266 22.4593 3.60381 22.684 3.75363 22.8752C3.90346 23.0664 4.09748 23.2184 4.31902 23.318C4.59635 23.4424 4.90501 23.4794 5.20388 23.424C5.50275 23.3686 5.77767 23.2235 5.99202 23.008ZM11.196 23.06C11.3433 22.9225 11.4613 22.7568 11.5431 22.5728C11.6249 22.3887 11.6688 22.19 11.6722 21.9886C11.6755 21.7872 11.6383 21.5872 11.5627 21.4005C11.4871 21.2138 11.3746 21.0442 11.232 20.9019C11.0895 20.7596 10.9197 20.6475 10.7329 20.5722C10.546 20.4969 10.3459 20.4601 10.1445 20.4638C9.94312 20.4676 9.74453 20.5118 9.56061 20.594C9.37669 20.6761 9.2112 20.7945 9.07402 20.942L6.07202 23.94C5.92478 24.0775 5.80673 24.2432 5.72492 24.4273C5.64311 24.6113 5.59922 24.81 5.59586 25.0114C5.5925 25.2128 5.62973 25.4128 5.70535 25.5995C5.78097 25.7862 5.89342 25.9558 6.03599 26.0981C6.17856 26.2404 6.34833 26.3525 6.53518 26.4278C6.72202 26.5031 6.92212 26.5399 7.12352 26.5362C7.32492 26.5324 7.5235 26.4882 7.70742 26.406C7.89134 26.3239 8.05683 26.2055 8.19402 26.058L11.196 23.06ZM13.446 26.06C13.6485 25.8571 13.7885 25.6005 13.8497 25.3205C13.9109 25.0406 13.8905 24.7489 13.7911 24.4801C13.6917 24.2113 13.5173 23.9766 13.2887 23.8038C13.0601 23.631 12.7867 23.5273 12.501 23.505C12.2853 23.4887 12.0686 23.5196 11.866 23.5956C11.6634 23.6716 11.4798 23.7908 11.328 23.945L9.32302 25.94C9.12027 26.1428 8.97991 26.3995 8.91857 26.6797C8.85723 26.9598 8.87749 27.2517 8.97694 27.5207C9.07639 27.7896 9.25086 28.0245 9.47968 28.1973C9.70851 28.3702 9.98209 28.4739 10.268 28.496C10.723 28.532 11.142 28.355 11.441 28.056L13.446 26.06ZM30.001 21.923L30.628 21.381L23.715 10.531L11.445 12.516C11.2499 12.549 11.0631 12.62 10.8954 12.7252C10.7278 12.8303 10.5824 12.9674 10.4678 13.1287C10.3531 13.29 10.2713 13.4723 10.2271 13.6652C10.1828 13.8581 10.177 14.0579 10.21 14.253C10.868 16.948 16.213 14.946 18.565 13.652L30.001 21.923Z" fill="#E0AA94"/>
<path d="M16.536 26.9289C16.466 27.1959 16.329 27.4269 16.147 27.6099L15.143 28.6059C14.9591 28.792 14.7296 28.9265 14.4774 28.996C14.2253 29.0654 13.9592 29.0675 13.706 29.0019C13.4504 28.9354 13.2168 28.8025 13.029 28.6167C12.8412 28.4309 12.7058 28.1988 12.6365 27.9439C12.5672 27.689 12.5664 27.4203 12.6343 27.165C12.7022 26.9096 12.8363 26.6768 13.023 26.4899L14.027 25.4939C14.2109 25.3079 14.4404 25.1734 14.6926 25.1039C14.9448 25.0344 15.2108 25.0324 15.464 25.0979C15.8487 25.199 16.1777 25.4485 16.3786 25.7918C16.5796 26.135 16.6362 26.544 16.536 26.9289ZM5.99202 22.0079L7.49502 20.5109C7.66687 20.3393 7.79448 20.1285 7.86686 19.8966C7.93924 19.6648 7.95424 19.4188 7.91057 19.1799C7.8669 18.941 7.76585 18.7162 7.61613 18.525C7.46641 18.3337 7.27248 18.1817 7.05102 18.0819C6.77353 17.9575 6.46471 17.9204 6.16566 17.9758C5.86661 18.0312 5.59152 18.1763 5.37702 18.3919L3.87402 19.8889C3.70219 20.0607 3.57464 20.2715 3.50233 20.5034C3.43002 20.7353 3.41511 20.9813 3.45888 21.2203C3.50266 21.4592 3.60381 21.6839 3.75363 21.8751C3.90346 22.0663 4.09748 22.2183 4.31902 22.3179C4.59635 22.4424 4.90501 22.4793 5.20388 22.424C5.50275 22.3686 5.77767 22.2235 5.99202 22.0079ZM11.196 22.0599C11.3433 21.9225 11.4613 21.7568 11.5431 21.5727C11.6249 21.3886 11.6688 21.1899 11.6722 20.9885C11.6755 20.7871 11.6383 20.5871 11.5627 20.4004C11.4871 20.2137 11.3746 20.0441 11.232 19.9018C11.0895 19.7595 10.9197 19.6474 10.7329 19.5721C10.546 19.4969 10.3459 19.46 10.1445 19.4638C9.94312 19.4675 9.74453 19.5118 9.56061 19.5939C9.37669 19.6761 9.2112 19.7944 9.07402 19.9419L6.07202 22.9399C5.92478 23.0774 5.80673 23.2431 5.72492 23.4272C5.64311 23.6113 5.59922 23.8099 5.59586 24.0113C5.5925 24.2128 5.62973 24.4128 5.70535 24.5995C5.78097 24.7862 5.89342 24.9557 6.03599 25.098C6.17856 25.2403 6.34833 25.3525 6.53518 25.4277C6.72202 25.503 6.92212 25.5399 7.12352 25.5361C7.32492 25.5324 7.5235 25.4881 7.70742 25.406C7.89134 25.3238 8.05683 25.2054 8.19402 25.0579L11.196 22.0599ZM13.446 25.0599C13.6485 24.8571 13.7885 24.6005 13.8497 24.3205C13.9109 24.0405 13.8905 23.7488 13.7911 23.48C13.6917 23.2113 13.5173 22.9766 13.2887 22.8038C13.0601 22.6309 12.7867 22.5273 12.501 22.5049C12.2853 22.4887 12.0686 22.5196 11.866 22.5956C11.6634 22.6716 11.4798 22.7908 11.328 22.9449L9.32302 24.9399C9.12027 25.1428 8.97991 25.3995 8.91857 25.6796C8.85723 25.9597 8.87749 26.2516 8.97694 26.5206C9.07639 26.7896 9.25086 27.0244 9.47968 27.1973C9.70851 27.3701 9.98209 27.4738 10.268 27.4959C10.723 27.5319 11.142 27.3549 11.441 27.0559L13.446 25.0599ZM35.003 17.6039C35.2678 17.3751 35.4408 17.0582 35.4903 16.7118C35.5397 16.3653 35.4622 16.0127 35.272 15.7189L35.269 15.7139L31.802 9.19294C31.6189 8.90042 31.3399 8.68063 31.0126 8.57117C30.6854 8.46172 30.3302 8.46942 30.008 8.59294C28.016 9.36395 25.834 10.2499 23.716 9.52994L22.618 9.15294C20.67 8.47794 18.552 7.68694 16.618 8.85894C15.923 9.26794 14.88 9.99194 14.207 10.4389C13.3756 10.9942 12.433 11.3614 11.445 11.5149C11.2496 11.5473 11.0625 11.618 10.8945 11.7229C10.7264 11.8279 10.5808 11.965 10.4661 12.1264C10.3513 12.2879 10.2695 12.4705 10.2256 12.6636C10.1817 12.8568 10.1764 13.0567 10.21 13.2519C10.823 15.7639 15.51 14.1599 18.048 12.8829C18.2064 12.8034 18.3837 12.7689 18.5604 12.7832C18.737 12.7975 18.9064 12.86 19.05 12.9639L30.634 21.3799L35.003 17.6039Z" fill="#EEC2AD"/>
</svg>
