<svg width="36" height="36" viewBox="0 0 36 36" fill="none" xmlns="http://www.w3.org/2000/svg">
<path d="M26 28H10C8.82103 28.0001 7.66818 28.3473 6.68529 28.9983C5.70239 29.6494 4.93296 30.5755 4.473 31.661C4.28741 31.4539 4.0604 31.288 3.80666 31.1741C3.55293 31.0603 3.27811 31.001 3 31C1.9 31 1 31.9 1 33V36H32V34C32 32.4087 31.3679 30.8826 30.2426 29.7574C29.1174 28.6321 27.5913 28 26 28Z" fill="#4289C1"/>
<path d="M14 27H22C22 27 23 36 18 36C13 36 14 27 14 27Z" fill="#2A6797"/>
<path d="M18 22.553C26.2843 22.553 33 20.973 33 19.024C33 17.075 26.2843 15.495 18 15.495C9.71573 15.495 3 17.075 3 19.024C3 20.973 9.71573 22.553 18 22.553Z" fill="#292F33"/>
<path d="M26.339 17.563C25.53 13.963 22.104 8.91296 18 8.91296C13.896 8.91296 10.47 13.963 9.66099 17.563C8.82499 17.611 8.16699 18.083 8.16699 19.452C8.16699 20.9 8.90099 22.074 9.80599 22.074C9.82099 22.074 9.83399 22.068 9.84899 22.067C10.913 26.443 14.159 30.08 18.001 30.08C21.843 30.08 25.089 26.443 26.153 22.067C26.168 22.068 26.181 22.074 26.196 22.074C27.101 22.074 27.835 20.9 27.835 19.452C27.833 18.083 27.176 17.612 26.339 17.563Z" fill="#F7DECE"/>
<path d="M14 20.709C13.45 20.709 13 20.259 13 19.709V18.709C13 18.159 13.45 17.709 14 17.709C14.55 17.709 15 18.159 15 18.709V19.709C15 20.259 14.55 20.709 14 20.709ZM22 20.709C21.45 20.709 21 20.259 21 19.709V18.709C21 18.159 21.45 17.709 22 17.709C22.55 17.709 23 18.159 23 18.709V19.709C23 20.259 22.55 20.709 22 20.709Z" fill="#662113"/>
<path d="M18.75 21.824H17.25C16.837 21.824 16.5 21.487 16.5 21.074C16.5 20.661 16.837 20.324 17.25 20.324H18.75C19.163 20.324 19.5 20.661 19.5 21.074C19.5 21.487 19.163 21.824 18.75 21.824ZM20.167 25.033H15.834C15.6352 25.0324 15.4448 24.9533 15.3042 24.8127C15.1637 24.6722 15.0845 24.4817 15.084 24.283V23.952C15.084 23.54 15.421 23.202 15.834 23.202H20.167C20.58 23.202 20.917 23.539 20.917 23.952V24.283C20.917 24.695 20.579 25.033 20.167 25.033Z" fill="#C1694F"/>
<path d="M26.424 17.846C26.611 17.7621 26.7678 17.6229 26.873 17.447C27.287 16.73 26.654 15.588 25.458 14.898C24.262 14.208 22.957 14.23 22.543 14.947C22.129 15.664 22.762 16.806 23.958 17.496C24.4252 17.7725 24.949 17.9397 25.49 17.985C25.198 18.509 25 19.458 25 20.554C25 21.617 25.185 22.545 25.463 23.078C25.054 23.062 24.51 23.474 24.172 23.842C23.463 23.103 22.331 22.293 21.052 22.04C19 21.634 18.151 22.426 17.964 22.973C17.782 22.426 16.935 21.625 14.874 22.033C13.615 22.282 12.5 23.071 11.789 23.8C11.45 23.443 10.929 23.063 10.536 23.078C10.815 22.545 11 21.616 11 20.554C11 19.453 10.8 18.5 10.505 17.979C11.071 18.043 11.779 17.889 12.458 17.497C13.654 16.807 14.287 15.665 13.873 14.948C13.459 14.231 12.154 14.209 10.958 14.899C9.762 15.589 9.129 16.731 9.543 17.448C9.593 17.535 9.658 17.611 9.732 17.677C9.311 18.029 9 19.177 9 20.554C9 22.211 9.448 23.554 10 23.554C10.02 23.554 10.039 23.54 10.059 23.536C10.0168 23.703 9.99694 23.8748 10 24.047C10 25.87 10.667 25.87 10.667 25.87C10 27.693 11.334 29.53 11.334 29.53C11.334 32.265 13.334 32.265 13.334 32.265C13.333 35 16 34.089 16 34.089C16.667 35 18 35 18 35C18 35 19.333 35 20 34.089C20 34.089 22.667 35 22.667 32.266C22.667 32.266 24.667 32.266 24.667 29.531C24.667 29.531 26 27.694 25.334 25.871C25.334 25.871 26.001 25.871 26.001 24.048C26.001 23.838 25.979 23.672 25.942 23.536C25.962 23.54 25.981 23.554 26.001 23.554C26.553 23.554 27.001 22.211 27.001 20.554C27 19.354 26.764 18.326 26.424 17.846ZM20.667 25.87C18.781 24.582 18 24.959 18 24.959C18 24.959 17.219 24.582 15.333 25.87C14.32 26.562 13.309 25.678 12.588 24.813C13.336 24.538 14.272 24.191 15.263 23.995C17.094 24.025 17.797 23.77 17.964 23.396C18.131 23.76 18.839 23.994 20.664 24.002C21.677 24.202 22.634 24.562 23.39 24.839C22.671 25.695 21.669 26.556 20.667 25.87Z" fill="#E6E7E8"/>
<path d="M25.765 15.157C24.537 12.47 18.793 0 18 0C17.207 0 11.463 12.47 10.235 15.157C5.415 16.001 3 17.595 3 19C9 17 14 16.557 18 16.557C22 16.557 27 17 33 19C33 17.595 30.585 16.001 25.765 15.157Z" fill="#4289C1"/>
<path d="M5 36H3V11.862L2 8H6L5 11.862V36Z" fill="#D99E82"/>
<path d="M4 9C5.65685 9 7 7.65685 7 6C7 4.34315 5.65685 3 4 3C2.34315 3 1 4.34315 1 6C1 7.65685 2.34315 9 4 9Z" fill="#55ACEE"/>
<path d="M3.5 7C4.32843 7 5 6.32843 5 5.5C5 4.67157 4.32843 4 3.5 4C2.67157 4 2 4.67157 2 5.5C2 6.32843 2.67157 7 3.5 7Z" fill="#B0F0FF"/>
<path d="M7 30.5C7 32.433 5.657 34 4 34C2.343 34 1 32.433 1 30.5C1 28.567 2.343 28 4 28C5.657 28 7 28.567 7 30.5Z" fill="#F7DECE"/>
</svg>
