<svg width="36" height="36" viewBox="0 0 36 36" fill="none" xmlns="http://www.w3.org/2000/svg">
<path d="M18 4C25.257 4 31 8 32.699 6C32.896 5.677 33 5.343 33 5C33 3 26.284 0 18 0C9.716 0 3 3 3 5C3 5.343 3.104 5.677 3.301 6C5 8 10.743 4 18 4Z" fill="#F4900C"/>
<path d="M18 3C11.787 3 7.38399 4.81 5.72699 5.618C5.24999 5.851 5.18799 6.458 5.31199 6.896C5.43599 7.334 16 34 16 34C16 34 16.896 36 18 36C19.104 36 20 34 20 34L30.704 6.779C30.704 6.779 30.917 5.937 30.135 5.55C28.392 4.689 24.047 3 18 3Z" fill="#FFCC4D"/>
<path d="M18.0001 31C18.0001 29.9391 17.5786 28.9217 16.8285 28.1716C16.0784 27.4214 15.0609 27 14.0001 27C13.7461 27 13.5001 27.029 13.2591 27.075L16.0001 34C16.0001 34 16.0711 34.14 16.1901 34.342C16.7458 33.9793 17.2023 33.4837 17.5183 32.9002C17.8343 32.3167 17.9999 31.6636 18.0001 31ZM17.0001 20C17.0001 18.9391 16.5786 17.9217 15.8285 17.1716C15.0784 16.4214 14.0609 16 13.0001 16C11.5741 16 10.3301 16.752 9.62207 17.876L11.9841 23.854C12.315 23.9464 12.6565 23.9955 13.0001 24C15.2081 24 17.0001 22.208 17.0001 20Z" fill="#BE1931"/>
<path d="M16 12C18.2091 12 20 10.2091 20 8C20 5.79086 18.2091 4 16 4C13.7909 4 12 5.79086 12 8C12 10.2091 13.7909 12 16 12Z" fill="#BE1931"/>
<path d="M25.0001 9C23.9393 9 22.9218 9.42143 22.1717 10.1716C21.4215 10.9217 21.0001 11.9391 21.0001 13C21.0001 14.0609 21.4215 15.0783 22.1717 15.8284C22.9218 16.5786 23.9393 17 25.0001 17C25.6821 17 26.3151 16.813 26.8771 16.512L28.7671 11.706C28.2271 10.135 26.7521 9 25.0001 9ZM19.0001 25C19.0018 25.8881 19.2996 26.7503 19.8464 27.4502C20.3932 28.15 21.1578 28.6475 22.0191 28.864L24.9121 21.507C24.328 21.1787 23.6701 21.0043 23.0001 21C20.7921 21 19.0001 22.792 19.0001 25ZM10.0001 12C10.0001 10.9391 9.57869 9.92172 8.82854 9.17157C8.0784 8.42143 7.06098 8 6.00012 8C5.91312 8 5.83112 8.02 5.74512 8.026C6.29512 9.438 7.32012 12.042 8.52012 15.083C9.41612 14.349 10.0001 13.248 10.0001 12Z" fill="#BE1931"/>
</svg>
