<svg width="36" height="36" viewBox="0 0 36 36" fill="none" xmlns="http://www.w3.org/2000/svg">
<path d="M31.301 11H4.66797C4.274 11 3.8839 11.0776 3.51992 11.2284C3.15594 11.3791 2.82522 11.6001 2.54665 11.8787C2.26807 12.1573 2.04709 12.488 1.89633 12.8519C1.74557 13.2159 1.66797 13.606 1.66797 14C1.66797 14.394 1.74557 14.7841 1.89633 15.1481C2.04709 15.512 2.26807 15.8427 2.54665 16.1213C2.82522 16.3999 3.15594 16.6209 3.51992 16.7716C3.8839 16.9224 4.274 17 4.66797 17C4.84997 17 5.02497 16.977 5.19797 16.947L5.18197 17L5.81897 31.004C5.91797 33.202 7.79997 35 9.99997 35H26C28.2 35 30.082 33.202 30.182 31.004L30.818 17L30.803 16.95C30.966 16.977 31.13 17 31.301 17C31.6949 17 32.085 16.9224 32.449 16.7716C32.813 16.6209 33.1437 16.3999 33.4223 16.1213C33.7009 15.8427 33.9218 15.512 34.0726 15.1481C34.2234 14.7841 34.301 14.394 34.301 14C34.301 13.606 34.2234 13.2159 34.0726 12.8519C33.9218 12.488 33.7009 12.1573 33.4223 11.8787C33.1437 11.6001 32.813 11.3791 32.449 11.2284C32.085 11.0776 31.6949 11 31.301 11Z" fill="#E1E8ED"/>
<path d="M28.668 17V33.989C29.531 33.255 30.112 32.193 30.16 31.003L30.84 17H28.668ZM22.668 17H25.668V35H22.668V17ZM16.668 35V17H19.668V35H16.668ZM10.668 17H13.668V35H10.668V17ZM5.16003 17L5.84003 31.003C5.89403 32.345 6.61603 33.531 7.66803 34.257V17H5.16003Z" fill="#DA2F47"/>
<path opacity="0.6" d="M5.16003 17L5.25703 19H30.742L30.84 17H5.16003Z" fill="#99AAB5"/>
<path d="M30.929 11.07C30.972 10.886 31 10.697 31 10.5C31 9.82599 30.73 9.21599 30.296 8.76699C30.718 8.50099 31 8.03499 31 7.49999C30.9997 7.25497 30.9393 7.01378 30.8241 6.7975C30.709 6.58122 30.5426 6.39644 30.3396 6.2593C30.1366 6.12217 29.903 6.03685 29.6594 6.01082C29.4158 5.9848 29.1695 6.01884 28.942 6.10999C28.8739 5.85802 28.7409 5.6283 28.5563 5.44373C28.3717 5.25915 28.142 5.12616 27.89 5.05799C27.9812 4.83056 28.0152 4.58426 27.9892 4.34064C27.9632 4.09701 27.8779 3.86347 27.7407 3.66042C27.6036 3.45738 27.4188 3.29103 27.2025 3.1759C26.9862 3.06077 26.7451 3.00037 26.5 2.99999C26.309 2.99999 26.128 3.03899 25.96 3.10399C25.9093 2.77222 25.7922 2.45409 25.6157 2.16865C25.4391 1.8832 25.2068 1.6363 24.9327 1.44274C24.6585 1.24917 24.3481 1.11291 24.02 1.04211C23.6919 0.971308 23.3529 0.967426 23.0233 1.0307C22.6937 1.09396 22.3803 1.22308 22.1017 1.41032C21.8232 1.59756 21.5853 1.83907 21.4023 2.1204C21.2193 2.40173 21.0949 2.7171 21.0366 3.04762C20.9783 3.37814 20.9873 3.71702 21.063 4.04399C20.423 4.15699 19.873 4.51299 19.5 5.01299C19.2691 4.69953 18.9678 4.44459 18.6205 4.26867C18.2732 4.09274 17.8894 4.00071 17.5 3.99999C16.837 3.99999 16.2011 4.26338 15.7323 4.73222C15.2634 5.20106 15 5.83695 15 6.49999L15.001 6.51199C14.6935 6.27649 14.3348 6.11684 13.954 6.04599C13.8488 5.47182 13.5456 4.9527 13.0973 4.57889C12.649 4.20509 12.0838 4.00025 11.5 3.99999C10.9148 4.00039 10.3484 4.2064 9.89966 4.58203C9.45092 4.95765 9.14843 5.479 9.04504 6.05499C8.86509 6.02242 8.68286 6.00403 8.50004 5.99999C7.57178 5.99999 6.68154 6.36874 6.02516 7.02511C5.36879 7.68149 5.00004 8.57173 5.00004 9.49999C5.00004 10.045 5.13504 10.554 5.35704 11.014C4.96652 11.0404 4.60193 11.2189 4.34158 11.5112C4.08123 11.8034 3.94588 12.1861 3.9646 12.5771C3.98333 12.9681 4.15463 13.3361 4.44172 13.6021C4.72881 13.8682 5.10878 14.011 5.50004 14H30.5C30.8607 14.0024 31.21 13.8743 31.4837 13.6393C31.7573 13.4044 31.9368 13.0785 31.9891 12.7216C32.0413 12.3647 31.9628 12.001 31.768 11.6975C31.5732 11.394 31.2752 11.1711 30.929 11.07Z" fill="#FFD983"/>
<path d="M28 9C28.5523 9 29 8.55228 29 8C29 7.44772 28.5523 7 28 7C27.4477 7 27 7.44772 27 8C27 8.55228 27.4477 9 28 9Z" fill="#FFAC33"/>
<path d="M24.5 7C25.3284 7 26 6.32843 26 5.5C26 4.67157 25.3284 4 24.5 4C23.6716 4 23 4.67157 23 5.5C23 6.32843 23.6716 7 24.5 7Z" fill="#FFAC33"/>
<path d="M12 8C12.5523 8 13 7.55228 13 7C13 6.44772 12.5523 6 12 6C11.4477 6 11 6.44772 11 7C11 7.55228 11.4477 8 12 8Z" fill="#FFAC33"/>
<path d="M31 12.5C31 12.1454 30.8742 11.8022 30.6449 11.5318C30.4155 11.2613 30.0976 11.081 29.7478 11.023C29.3979 10.965 29.0389 11.0331 28.7345 11.2151C28.4302 11.3972 28.2004 11.6813 28.086 12.017C28.057 12.015 28.031 12 28 12C27.7348 12 27.4804 12.1053 27.2929 12.2929C27.1054 12.4804 27 12.7348 27 13H30.908C30.964 12.843 31 12.676 31 12.5ZM9.5 12C9.698 12 9.885 12.04 10.058 12.11C10.1513 11.7583 10.3695 11.4527 10.6718 11.2503C10.9742 11.0479 11.3399 10.9626 11.7006 11.0104C12.0613 11.0583 12.3922 11.2359 12.6314 11.51C12.8705 11.7842 13.0016 12.1362 13 12.5C13 12.676 12.964 12.843 12.908 13H17.092C17.0328 12.8399 17.0017 12.6707 17 12.5C17 12.1022 17.158 11.7206 17.4393 11.4393C17.7206 11.158 18.1022 11 18.5 11C18.737 11 18.959 11.06 19.158 11.158C19.0554 10.9537 19.0013 10.7286 19 10.5C18.9991 10.2784 19.0474 10.0594 19.1413 9.8587C19.2351 9.65799 19.3723 9.48058 19.5429 9.3392C19.7135 9.19783 19.9133 9.096 20.128 9.04105C20.3426 8.9861 20.5668 8.97939 20.7844 9.02139C21.0019 9.0634 21.2075 9.15308 21.3862 9.28399C21.565 9.41491 21.7125 9.58379 21.8183 9.77852C21.924 9.97325 21.9852 10.189 21.9976 10.4102C22.01 10.6314 21.9733 10.8527 21.89 11.058C22.528 11.23 23 11.807 23 12.5C23 12.676 22.964 12.843 22.908 13H25.876L25.31 12.5C25.73 12.133 26 11.601 26 11C26 10.4696 25.7893 9.96085 25.4142 9.58578C25.0391 9.21071 24.5304 8.99999 24 8.99999C23.6362 9.0015 23.2798 9.10322 22.97 9.29399C22.985 9.19699 23 9.10099 23 8.99999C23.0009 8.54325 22.8452 8.10001 22.5588 7.74418C22.2725 7.38834 21.8728 7.14141 21.4265 7.04456C20.9801 6.94771 20.514 7.00679 20.106 7.21195C19.6979 7.41712 19.3725 7.75596 19.184 8.17199C18.9731 8.06067 18.7385 8.00168 18.5 7.99999C18.255 8.00037 18.0138 8.06077 17.7975 8.1759C17.5812 8.29103 17.3965 8.45739 17.2593 8.66043C17.1222 8.86347 17.0369 9.09701 17.0108 9.34064C16.9848 9.58427 17.0189 9.83056 17.11 10.058C16.472 10.231 16 10.808 16 11.5C16 11.698 16.04 11.885 16.11 12.058C15.8834 12.1191 15.6743 12.2328 15.5 12.39C15.2268 12.14 14.8703 12.001 14.5 12C14.263 12 14.041 12.06 13.841 12.159C13.94 11.959 14 11.737 14 11.5C13.9996 11.255 13.9392 11.0138 13.8241 10.7975C13.709 10.5812 13.5426 10.3964 13.3396 10.2593C13.1365 10.1222 12.903 10.0369 12.6594 10.0108C12.4157 9.9848 12.1694 10.0188 11.942 10.11C11.8891 9.91284 11.7964 9.7286 11.6696 9.56861C11.5429 9.40863 11.3847 9.27627 11.2049 9.1797C11.025 9.08313 10.8274 9.02438 10.624 9.00707C10.4206 8.98976 10.2158 9.01426 10.0222 9.07905C9.82866 9.14385 9.6504 9.24757 9.49842 9.38384C9.34644 9.52011 9.22396 9.68603 9.13851 9.87141C9.05305 10.0568 9.00644 10.2577 9.00154 10.4618C8.99664 10.6658 9.03355 10.8687 9.11 11.058C8.88335 11.1191 8.67434 11.2328 8.5 11.39C8.22685 11.14 7.87026 11.001 7.5 11C7.10218 11 6.72064 11.158 6.43934 11.4393C6.15804 11.7206 6 12.1022 6 12.5C6 12.676 6.036 12.843 6.092 13H8.092C8.299 12.419 8.848 12 9.5 12Z" fill="#FFAC33"/>
<path d="M4 13V14C4 14.2652 4.10536 14.5196 4.29289 14.7071C4.48043 14.8946 4.73478 15 5 15H31C31.2652 15 31.5196 14.8946 31.7071 14.7071C31.8946 14.5196 32 14.2652 32 14V13H4Z" fill="white"/>
</svg>
