<svg width="36" height="36" viewBox="0 0 36 36" fill="none" xmlns="http://www.w3.org/2000/svg">
<path d="M19.15 34.768C21.922 33.577 23.724 31.151 24.794 28.812C26.467 25.155 32.376 23.643 33.844 22.601C35.882 21.155 34.01 18.228 30.98 18.712C27.715 19.234 26.927 20.655 24.959 21.516C23.955 21.954 23.246 21.813 23.112 19.96C23.014 18.601 24.768 7.92304 25.302 3.00004C25.485 1.31504 24.783 0.355041 23.427 0.174041C21.891 -0.0309594 21.096 0.805041 20.771 2.34404C19.961 6.17604 18.677 13.688 18.138 14.112C15.242 15.929 11.381 18.306 7.93002 13.689C7.93002 13.689 6.27902 5.02804 6.02202 3.28004C5.57702 0.25404 1.49102 0.80004 1.82602 3.95504C2.14002 6.92704 3.11502 13.94 2.26102 16.431C1.51102 18.62 0.187016 26.133 3.10402 30.708C5.98202 35.222 13.664 37.125 19.15 34.768Z" fill="#F7DECE"/>
<path d="M8.83396 22.614C9.69896 26.77 14.72 26.303 14.403 22.344C14.146 19.124 13.168 13.498 12.85 12.092C12.202 9.21503 7.19096 9.85403 7.60096 13.251C7.86696 15.456 8.16096 19.379 8.83396 22.614Z" fill="#E0AA94"/>
<path d="M9.75803 22.191C10.553 25.64 14.187 24.681 14.002 21.457C13.817 18.232 13.071 13.318 12.843 11.894C12.309 8.56796 8.03703 10.065 8.38403 12.515C8.73103 14.965 9.16503 19.619 9.75803 22.191Z" fill="#F7DECE"/>
<path d="M12.7301 23.5201C12.7991 28.4631 18.3111 28.1941 18.7431 24.4941C19.1181 21.2861 18.3241 14.2141 18.2651 12.7721C18.1541 10.0891 13.2501 10.0701 13.0891 13.1171C12.9591 15.5891 12.6931 20.8811 12.7301 23.5201Z" fill="#E0AA94"/>
<path d="M13.667 23.6661C13.526 26.7401 17.681 27.0881 17.982 23.8731C18.284 20.6581 18.212 13.7841 18.188 12.3431C18.147 9.83506 13.954 9.92406 13.836 13.0041C13.742 15.4761 13.787 21.0291 13.667 23.6661Z" fill="#F7DECE"/>
</svg>
