<svg width="36" height="36" viewBox="0 0 36 36" fill="none" xmlns="http://www.w3.org/2000/svg">
<g clip-path="url(#clip0_16_968)">
<path d="M35.999 11.917C35.9991 13.7429 35.2739 15.494 33.9829 16.7852C33.3437 17.4245 32.5848 17.9317 31.7495 18.2777C30.9143 18.6238 30.0191 18.8019 29.115 18.802C27.2891 18.8021 25.5379 18.0769 24.2468 16.7859C22.9556 15.4949 22.2301 13.7439 22.23 11.918C22.2298 10.092 22.9551 8.34068 24.2462 7.04939C25.5373 5.75811 27.2885 5.0326 29.1145 5.03247C30.9405 5.03234 32.6918 5.75759 33.9831 7.04869C35.2743 8.33978 35.9998 10.091 36 11.917H35.999Z" fill="#8899A6"/>
<path d="M32.81 18.5681C32.7302 18.648 32.6353 18.7115 32.5309 18.7548C32.4265 18.7981 32.3146 18.8203 32.2015 18.8203C32.0885 18.8203 31.9766 18.7981 31.8722 18.7548C31.7678 18.7115 31.6729 18.648 31.593 18.5681L22.466 9.44006C22.3861 9.36019 22.3226 9.26533 22.2793 9.16092C22.236 9.05651 22.2138 8.94459 22.2138 8.83156C22.2138 8.71853 22.236 8.60661 22.2793 8.5022C22.3226 8.39779 22.3861 8.30293 22.466 8.22306L23.683 7.00606C23.7629 6.92609 23.8578 6.86264 23.9622 6.81935C24.0666 6.77606 24.1785 6.75378 24.2915 6.75378C24.4046 6.75378 24.5165 6.77606 24.6209 6.81935C24.7253 6.86264 24.8202 6.92609 24.9 7.00606L34.027 16.1341C34.107 16.2139 34.1705 16.3088 34.2137 16.4132C34.257 16.5176 34.2793 16.6295 34.2793 16.7426C34.2793 16.8556 34.257 16.9675 34.2137 17.0719C34.1705 17.1763 34.107 17.2712 34.027 17.3511L32.81 18.5681ZM26.739 18.7041L22.414 14.3771C21.636 13.5981 20.419 13.6441 19.695 14.4781L10.537 25.0521C9.31804 26.4601 9.07604 28.4061 9.82604 29.7821L4.91504 34.6941L6.32404 36.1031L11.201 31.2261C12.582 32.0661 14.612 31.8351 16.063 30.5781L26.638 21.4211C27.472 20.6981 27.519 19.4811 26.739 18.7041Z" fill="#31373D"/>
<path d="M4 6V14.122C3.67261 14.0422 3.33697 14.0013 3 14C1.343 14 0 14.896 0 16C0 17.104 1.343 18 3 18C4.657 18 6 17.104 6 16V9.889L11 12.111V17.122C10.6726 17.0422 10.337 17.0013 10 17C8.343 17 7 17.896 7 19C7 20.104 8.343 21 10 21C11.657 21 12.999 20.104 13 19V10L4 6ZM18 1V9.123C17.6727 9.04288 17.337 9.0016 17 9C15.343 9 14 9.895 14 11C14 12.104 15.343 13 17 13C18.656 13 20 12.104 20 11V1H18Z" fill="#55ACEE"/>
</g>
<defs>
<clipPath id="clip0_16_968">
<rect width="36" height="36" fill="white"/>
</clipPath>
</defs>
</svg>
