<svg width="36" height="36" viewBox="0 0 36 36" fill="none" xmlns="http://www.w3.org/2000/svg">
<path d="M30.806 15.347H19.201L27.406 7.14201L26.699 6.43501L18.494 14.64V3.03601H17.494V14.64L9.28801 6.43501L8.58101 7.14201L16.787 15.347H5.18201V16.347H16.787L8.58101 24.553L9.28801 25.26L17.494 17.054V28.659H18.494V17.055L26.699 25.26L27.406 24.553L19.201 16.347H30.806V15.347Z" fill="#CCD6DD"/>
<path d="M17.994 1.39404C10.012 1.39404 3.54102 7.86504 3.54102 15.847C3.54102 23.829 10.012 30.3 17.994 30.3C25.977 30.3 32.448 23.829 32.448 15.847C32.447 7.86504 25.976 1.39404 17.994 1.39404ZM17.994 28.077C11.239 28.077 5.76402 22.602 5.76402 15.847C5.76402 9.09204 11.239 3.61704 17.994 3.61704C24.748 3.61704 30.224 9.09204 30.224 15.847C30.224 22.602 24.749 28.077 17.994 28.077Z" fill="#AAB8C2"/>
<path d="M17.993 23.374C13.843 23.374 10.467 19.997 10.467 15.847C10.467 11.697 13.843 8.32104 17.993 8.32104C22.144 8.32104 25.521 11.697 25.521 15.847C25.521 19.997 22.145 23.374 17.993 23.374ZM17.993 9.82104C14.67 9.82104 11.967 12.525 11.967 15.847C11.967 19.169 14.671 21.874 17.993 21.874C21.317 21.874 24.021 19.17 24.021 15.847C24.021 12.524 21.317 9.82104 17.993 9.82104Z" fill="#AAB8C2"/>
<path d="M27.279 34.429L18.903 16.085C18.882 16.039 18.845 16.009 18.818 15.968C18.78 15.909 18.746 15.85 18.695 15.799C18.644 15.748 18.585 15.714 18.525 15.676C18.484 15.649 18.454 15.612 18.408 15.591C18.396 15.586 18.384 15.588 18.373 15.583C18.309 15.556 18.241 15.549 18.172 15.536C18.111 15.525 18.051 15.506 17.99 15.506C17.936 15.506 17.884 15.524 17.829 15.533C17.754 15.546 17.68 15.555 17.61 15.584C17.599 15.589 17.587 15.587 17.576 15.592C17.532 15.612 17.502 15.649 17.462 15.674C17.401 15.713 17.341 15.748 17.289 15.799C17.238 15.85 17.203 15.91 17.165 15.97C17.139 16.01 17.102 16.04 17.082 16.085L8.709 34.429C8.60642 34.669 8.60175 34.9396 8.696 35.1831C8.79025 35.4265 8.97594 35.6234 9.21342 35.7317C9.45089 35.8401 9.72133 35.8513 9.96695 35.763C10.2126 35.6746 10.4139 35.4938 10.528 35.259L17.993 18.908L25.458 35.259C25.5681 35.5005 25.7696 35.6883 26.0181 35.7812C26.2667 35.8742 26.542 35.8645 26.7835 35.7545C27.025 35.6444 27.2128 35.4429 27.3058 35.1944C27.3987 34.9458 27.3891 34.6705 27.279 34.429Z" fill="#8899A6"/>
<path d="M12.9 36H7.07898C6.81376 36 6.55941 35.8946 6.37187 35.7071C6.18434 35.5196 6.07898 35.2652 6.07898 35C6.07898 34.7348 6.18434 34.4804 6.37187 34.2929C6.55941 34.1054 6.81376 34 7.07898 34H12.9C13.1652 34 13.4196 34.1054 13.6071 34.2929C13.7946 34.4804 13.9 34.7348 13.9 35C13.9 35.2652 13.7946 35.5196 13.6071 35.7071C13.4196 35.8946 13.1652 36 12.9 36ZM28.899 36H23.079C22.8138 36 22.5594 35.8946 22.3719 35.7071C22.1843 35.5196 22.079 35.2652 22.079 35C22.079 34.7348 22.1843 34.4804 22.3719 34.2929C22.5594 34.1054 22.8138 34 23.079 34H28.899C29.1642 34 29.4186 34.1054 29.6061 34.2929C29.7936 34.4804 29.899 34.7348 29.899 35C29.899 35.2652 29.7936 35.5196 29.6061 35.7071C29.4186 35.8946 29.1642 36 28.899 36Z" fill="#553788"/>
<path d="M21.284 29.819C21.284 30.5561 20.9912 31.2629 20.4701 31.7841C19.9489 32.3053 19.242 32.598 18.505 32.598H17.393C16.656 32.598 15.9491 32.3053 15.428 31.7841C14.9068 31.2629 14.614 30.5561 14.614 29.819C14.614 29.082 14.9068 28.3752 15.428 27.854C15.9491 27.3328 16.656 27.04 17.393 27.04H18.505C19.242 27.0403 19.9487 27.3332 20.4698 27.8543C20.9909 28.3754 21.2837 29.0821 21.284 29.819Z" fill="#744EAA"/>
<path d="M21.227 29.2629C21.099 28.6352 20.7581 28.0709 20.2619 27.6656C19.7657 27.2603 19.1447 27.0389 18.504 27.0389H17.392C16.7512 27.0389 16.13 27.2602 15.6336 27.6655C15.1373 28.0708 14.7961 28.6351 14.668 29.2629H21.227Z" fill="#CBB7EA"/>
<path d="M11.017 26.527C11.017 27.2641 10.7243 27.9709 10.2031 28.4921C9.68193 29.0133 8.97508 29.306 8.23805 29.306H7.12605C6.38901 29.306 5.68216 29.0133 5.161 28.4921C4.63983 27.9709 4.34705 27.2641 4.34705 26.527C4.34705 25.79 4.63983 25.0832 5.161 24.562C5.68216 24.0408 6.38901 23.748 7.12605 23.748H8.23805C8.97508 23.748 9.68193 24.0408 10.2031 24.562C10.7243 25.0832 11.017 25.79 11.017 26.527Z" fill="#5C913B"/>
<path d="M10.96 25.9709C10.832 25.3432 10.4911 24.7789 9.99488 24.3736C9.49867 23.9683 8.87766 23.747 8.23698 23.7469H7.12598C6.48517 23.7469 5.86403 23.9682 5.36765 24.3735C4.87127 24.7788 4.53014 25.3431 4.40198 25.9709H10.96Z" fill="#C6E5B3"/>
<path d="M34.9769 17.633C34.9769 17.9979 34.905 18.3593 34.7653 18.6965C34.6257 19.0336 34.421 19.34 34.1629 19.5981C33.9049 19.8561 33.5985 20.0608 33.2614 20.2005C32.9242 20.3401 32.5628 20.412 32.1979 20.412H31.0859C30.3488 20.412 29.642 20.1192 29.1208 19.5981C28.5997 19.0769 28.3069 18.37 28.3069 17.633C28.3069 16.896 28.5997 16.1891 29.1208 15.668C29.642 15.1468 30.3488 14.854 31.0859 14.854H32.1979C32.5629 14.8537 32.9244 14.9254 33.2617 15.065C33.599 15.2046 33.9054 15.4093 34.1635 15.6674C34.4216 15.9255 34.6263 16.2319 34.7659 16.5692C34.9054 16.9065 34.9771 17.268 34.9769 17.633Z" fill="#3B94D9"/>
<path d="M34.921 17.077C34.7931 16.4492 34.4521 15.885 33.9559 15.4797C33.4597 15.0744 32.8387 14.853 32.198 14.853H31.086C30.4454 14.853 29.8243 15.0744 29.3281 15.4797C28.8319 15.885 28.491 16.4492 28.363 17.077H34.921Z" fill="#BBDDF5"/>
<path d="M31.644 7.88703C31.644 8.62407 31.3512 9.33092 30.83 9.85208C30.3089 10.3732 29.602 10.666 28.865 10.666H27.753C27.016 10.666 26.3091 10.3732 25.7879 9.85208C25.2668 9.33092 24.974 8.62407 24.974 7.88703C24.974 7.15 25.2668 6.44315 25.7879 5.92198C26.3091 5.40082 27.016 5.10803 27.753 5.10803H28.865C29.602 5.10803 30.3089 5.40082 30.83 5.92198C31.3512 6.44315 31.644 7.15 31.644 7.88703Z" fill="#5C913B"/>
<path d="M31.588 7.33106C31.4601 6.70328 31.1191 6.13899 30.6229 5.73372C30.1267 5.32844 29.5057 5.10706 28.865 5.10706H27.753C27.1123 5.10706 26.4913 5.32844 25.9951 5.73372C25.4989 6.13899 25.158 6.70328 25.03 7.33106H31.588Z" fill="#C6E5B3"/>
<path d="M31.644 26.527C31.644 27.2641 31.3512 27.9709 30.83 28.4921C30.3089 29.0133 29.602 29.306 28.865 29.306H27.753C27.016 29.306 26.3091 29.0133 25.7879 28.4921C25.2668 27.9709 24.974 27.2641 24.974 26.527C24.974 25.79 25.2668 25.0832 25.7879 24.562C26.3091 24.0408 27.016 23.748 27.753 23.748H28.865C29.602 23.748 30.3089 24.0408 30.83 24.562C31.3512 25.0832 31.644 25.79 31.644 26.527Z" fill="#BE1931"/>
<path d="M31.588 25.9709C31.4601 25.3432 31.1191 24.7789 30.6229 24.3736C30.1267 23.9683 29.5057 23.747 28.865 23.7469H27.753C27.1123 23.747 26.4913 23.9683 25.9951 24.3736C25.4989 24.7789 25.158 25.3432 25.03 25.9709H31.588Z" fill="#F4ABBA"/>
<path d="M11.017 7.88703C11.017 8.62407 10.7243 9.33092 10.2031 9.85208C9.68193 10.3732 8.97508 10.666 8.23805 10.666H7.12605C6.38901 10.666 5.68216 10.3732 5.161 9.85208C4.63983 9.33092 4.34705 8.62407 4.34705 7.88703C4.34705 7.15 4.63983 6.44315 5.161 5.92198C5.68216 5.40082 6.38901 5.10803 7.12605 5.10803H8.23805C8.97508 5.10803 9.68193 5.40082 10.2031 5.92198C10.7243 6.44315 11.017 7.15 11.017 7.88703Z" fill="#BE1931"/>
<path d="M10.96 7.33106C10.832 6.70328 10.4911 6.13899 9.99488 5.73372C9.49867 5.32844 8.87766 5.10706 8.23698 5.10706H7.12598C6.48517 5.10702 5.86403 5.32836 5.36765 5.73362C4.87127 6.13889 4.53014 6.7032 4.40198 7.33106H10.96Z" fill="#F4ABBA"/>
<path d="M21.284 2.87605C21.284 3.61308 20.9912 4.31993 20.4701 4.8411C19.9489 5.36226 19.242 5.65505 18.505 5.65505H17.393C17.0281 5.65505 16.6667 5.58317 16.3295 5.44351C15.9924 5.30385 15.686 5.09915 15.428 4.8411C15.1699 4.58304 14.9652 4.27669 14.8256 3.93952C14.6859 3.60236 14.614 3.24099 14.614 2.87605C14.614 2.5111 14.6859 2.14973 14.8256 1.81257C14.9652 1.47541 15.1699 1.16905 15.428 0.910996C15.686 0.652942 15.9924 0.448243 16.3295 0.308585C16.6667 0.168927 17.0281 0.0970461 17.393 0.0970461H18.505C18.87 0.0969147 19.2314 0.168706 19.5686 0.308317C19.9059 0.447928 20.2123 0.652623 20.4704 0.910703C20.7284 1.16878 20.9331 1.47519 21.0727 1.81241C21.2124 2.14964 21.2841 2.51107 21.284 2.87605Z" fill="#744EAA"/>
<path d="M21.227 2.31995C21.099 1.69217 20.7581 1.12789 20.2619 0.722606C19.7657 0.317328 19.1447 0.095951 18.504 0.0959473H17.392C16.7512 0.0959087 16.13 0.317249 15.6336 0.722516C15.1373 1.12778 14.7961 1.69209 14.668 2.31995H21.227Z" fill="#CBB7EA"/>
<path d="M7.68199 17.633C7.68199 18.37 7.3892 19.0769 6.86804 19.5981C6.34687 20.1192 5.64002 20.412 4.90299 20.412H3.78999C3.05295 20.412 2.3461 20.1192 1.82494 19.5981C1.30377 19.0769 1.01099 18.37 1.01099 17.633C1.01099 16.896 1.30377 16.1891 1.82494 15.668C2.3461 15.1468 3.05295 14.854 3.78999 14.854H4.90199C5.26705 14.8537 5.62859 14.9254 5.96593 15.065C6.30326 15.2045 6.60979 15.4092 6.86798 15.6673C7.12616 15.9254 7.33095 16.2319 7.47062 16.5691C7.61029 16.9064 7.68212 17.2679 7.68199 17.633Z" fill="#3B94D9"/>
<path d="M7.62504 17.077C7.49709 16.4492 7.15615 15.885 6.65994 15.4797C6.16373 15.0744 5.54272 14.853 4.90204 14.853H3.79004C3.14923 14.853 2.52809 15.0743 2.03171 15.4796C1.53533 15.8849 1.1942 16.4492 1.06604 17.077H7.62504Z" fill="#BBDDF5"/>
<path d="M14.952 15.847C14.952 15.0405 15.2724 14.267 15.8427 13.6967C16.413 13.1264 17.1865 12.806 17.993 12.806C18.7996 12.806 19.573 13.1264 20.1433 13.6967C20.7136 14.267 21.034 15.0405 21.034 15.847C21.034 16.6536 20.7136 17.427 20.1433 17.9973C19.573 18.5676 18.7996 18.888 17.993 18.888C17.1865 18.888 16.413 18.5676 15.8427 17.9973C15.2724 17.427 14.952 16.6536 14.952 15.847Z" fill="#553788"/>
</svg>
