<svg width="36" height="36" viewBox="0 0 36 36" fill="none" xmlns="http://www.w3.org/2000/svg">
<path d="M28.632 30.563C28.454 29.137 27.064 28.632 26.375 28.632C25.491 28.632 23.383 29.738 23 28.047L22.963 27.864L13.053 27.852L13 28.036C12.625 29.744 10.508 28.632 9.62199 28.632C8.93299 28.632 7.54299 29.137 7.36499 30.563C7.36499 30.563 14.13 33 18 33C21.873 33 28.632 30.563 28.632 30.563Z" fill="#4289C1"/>
<path d="M12.4971 16.024C11.8231 15.89 11.1611 17.333 11.0271 18.007L9.84605 23.02C8.22705 24.186 8.27605 26.474 7.03805 27.532C6.86705 27.678 6.08905 28.298 5.83505 28.857C5.49905 29.595 6.05505 29.301 5.88005 29.552C5.47405 30.136 5.46605 31.03 5.75305 31.238L6.12605 31.338C6.68305 31.741 8.20705 30.002 8.40705 29.036C8.70705 27.593 11.4821 25.786 11.9961 24.383C12.0021 24.366 12.0031 24.354 12.0091 24.337C12.1092 24.1967 12.1787 24.0369 12.2131 23.868L13.4791 17.493C13.5429 17.168 13.4755 16.831 13.2914 16.5557C13.1074 16.2804 12.8217 16.0892 12.4971 16.024ZM30.0871 29.612C29.9121 29.361 30.5241 29.596 30.1881 28.858C29.9331 28.298 29.0991 27.679 28.9291 27.533C27.6831 26.469 27.7961 24.156 26.1481 22.998L24.9721 18.008C24.8381 17.334 24.1771 15.891 23.5021 16.025C23.1774 16.0907 22.8918 16.2821 22.7077 16.5574C22.5235 16.8328 22.4557 17.1698 22.5191 17.495L23.7851 23.87C23.8231 24.061 23.9101 24.225 24.0211 24.371L24.0251 24.385C24.5381 25.787 27.3141 27.594 27.6141 29.038C27.8151 30.005 29.3391 31.744 29.8951 31.34L30.2681 31.24C30.5581 31.03 30.4941 30.196 30.0871 29.612Z" fill="#F7DECE"/>
<path d="M22.757 35.82C21.717 35.909 20.737 35.612 19.757 35.82C19.282 35.85 18.955 35.82 18.48 35.404C18.005 34.988 10.193 33.889 8.767 32.939C8.109 32.5 7.105 31.399 7.371 30.474C7.634 29.561 8.51 29.045 9.569 29.019C11.634 28.968 15.569 31.96 18.42 33.059C18.938 33.259 19.368 33.007 20.024 33.178C20.707 33.356 22.341 32.623 23.173 32.732C24.302 32.881 24.747 33.415 24.658 34.336C24.564 35.31 23.797 35.731 22.757 35.82Z" fill="#F7DECE"/>
<path d="M22.757 35.82C21.717 35.909 20.737 35.612 19.757 35.82C19.282 35.85 18.955 35.82 18.48 35.404C18.005 34.988 19.369 33.005 20.025 33.176C20.708 33.354 22.342 32.621 23.174 32.73C24.303 32.879 24.748 33.413 24.659 34.334C24.564 35.31 23.797 35.731 22.757 35.82ZM11.196 33.206C11.434 32.582 12.384 32.315 12.83 32.256C13.276 32.197 14.018 32.464 14.523 32.672C15.028 32.88 15.641 32.906 16.027 32.757C16.413 32.608 16.695 32.633 16.985 32.757C17.063 32.79 17.408 32.757 17.531 32.69C17.531 32.69 19.321 33.306 18.667 33.514C18.014 33.722 13.246 34.038 12.593 34.038C11.94 34.038 11.196 33.206 11.196 33.206Z" fill="#EEC2AD"/>
<path d="M7.371 30.474C7.377 30.454 7.387 30.437 7.393 30.418C7.594 31.18 8.153 32.078 8.794 32.316C9.596 32.613 16.041 34.514 16.843 34.603C17.645 34.692 18.833 34.811 19.071 34.989C19.309 35.167 19.932 35.227 20.437 35.108C20.942 34.989 22.219 35.464 22.873 35.316C23.526 35.168 24.477 34.871 24.655 34.069C24.658 34.054 24.662 34.047 24.666 34.035C24.67 34.131 24.669 34.23 24.659 34.337C24.565 35.312 23.798 35.733 22.758 35.822C21.718 35.911 20.738 35.614 19.758 35.822C19.283 35.852 18.956 35.822 18.481 35.406C18.006 34.99 10.194 33.891 8.768 32.941C8.109 32.5 7.105 31.398 7.371 30.474Z" fill="#EEC2AD"/>
<path d="M13.2431 35.82C14.2831 35.909 15.2631 35.612 16.2431 35.82C16.7181 35.85 17.0451 35.82 17.5201 35.404C17.9951 34.988 25.8071 33.889 27.2331 32.939C27.8911 32.5 28.8951 31.399 28.6291 30.474C28.3661 29.561 27.4901 29.045 26.4311 29.019C24.3661 28.968 20.4311 31.96 17.5801 33.059C17.0621 33.259 16.6321 33.007 15.9761 33.178C15.2931 33.356 13.6591 32.623 12.8271 32.732C11.6981 32.881 11.2531 33.415 11.3421 34.336C11.4361 35.31 12.2031 35.731 13.2431 35.82Z" fill="#F7DECE"/>
<path d="M22.543 15H13.483C10.921 15 10.54 19.394 10.54 19.394L12.998 19.929C12.998 19.929 13.308 23.518 13.269 25.199C13.231 26.881 12.999 28 12.999 28C12.999 28 14.911 28.394 17.999 28.394C21.087 28.394 22.999 28 22.999 28C22.999 28 22.65 26.394 22.65 25.022C22.65 23.65 22.999 19.929 22.999 19.929L25.457 19.394C25.457 19.394 25.105 15 22.543 15Z" fill="#77B255"/>
<path d="M15.667 10.389V15.055C15.667 15.367 16.22 16.543 18 16.543C19.781 16.543 20.333 15.329 20.333 15.055V10.389H15.667Z" fill="#F7DECE"/>
<path d="M20.333 9.77399L15.667 9.79599V14.44C15.667 14.44 18 15.607 20.333 14.44V9.77399Z" fill="#EEC2AD"/>
<path d="M22.9539 3.966H13.0459V9.399C13.0459 10.7129 13.5678 11.973 14.4969 12.902C15.4259 13.8311 16.686 14.353 17.9999 14.353C19.3138 14.353 20.5739 13.8311 21.5029 12.902C22.432 11.973 22.9539 10.7129 22.9539 9.399V3.966Z" fill="#F7DECE"/>
<path d="M19.982 12.057H16.018C16.018 12.057 16.018 13.048 18 13.048C19.982 13.048 19.982 12.057 19.982 12.057ZM16.25 8.75H14.75C14.613 8.75 14.5 8.637 14.5 8.5C14.5 8.363 14.613 8.25 14.75 8.25H16.25C16.388 8.25 16.5 8.363 16.5 8.5C16.5 8.637 16.388 8.75 16.25 8.75ZM21.25 8.75H19.75C19.612 8.75 19.5 8.637 19.5 8.5C19.5 8.363 19.612 8.25 19.75 8.25H21.25C21.388 8.25 21.5 8.363 21.5 8.5C21.5 8.637 21.388 8.75 21.25 8.75ZM17.009 10.076H18.991C18.991 10.076 18.991 11.067 18 11.067C17.009 11.067 17.009 10.076 17.009 10.076Z" fill="#C1694F"/>
<path d="M18 0.953003C21.385 0.953003 23.5 3.532 23.5 5.681C23.5 7.83 23.077 8.69 22.654 7.83L21.808 6.111C21.808 6.111 19.27 6.111 18.424 5.251C18.424 5.251 19.693 7.83 17.155 5.251C17.155 5.251 17.578 6.971 15.04 4.822C15.04 4.822 13.771 5.682 13.348 7.83C13.231 8.427 12.502 7.83 12.502 5.681C12.5 3.532 14.192 0.953003 18 0.953003Z" fill="#292F33"/>
</svg>
