<svg width="36" height="36" viewBox="0 0 36 36" fill="none" xmlns="http://www.w3.org/2000/svg">
<path d="M18 36C27.9411 36 36 27.9411 36 18C36 8.05887 27.9411 0 18 0C8.05887 0 0 8.05887 0 18C0 27.9411 8.05887 36 18 36Z" fill="#88C9F9"/>
<path d="M30.1299 23.748C29.1129 23.358 29.2939 23.5 28.6669 22.167C28.0399 20.835 27.6599 20.406 26.2499 20.25C24.8389 20.095 24.8919 20.205 24.4999 19.5C24.1079 18.794 22.5179 19.691 21.4999 20.084C20.4789 20.476 20.7309 21.33 20.4169 21.25C19.7271 21.09 19.0808 20.7804 18.5239 20.343C17.7399 19.715 19.1069 19.225 19.4999 18.834C19.8929 18.441 18.7599 18.655 18.3669 18.418C17.9739 18.184 17.2709 18.889 16.6439 18.26C16.0159 17.633 16.4089 16.692 16.3309 15.908C16.2519 15.123 17.3489 14.967 18.0549 14.81C18.7599 14.654 19.3079 14.811 19.3079 15.751C19.3079 16.692 20.1709 17.006 19.9359 15.907C19.7009 14.808 20.1709 14.496 20.4859 13.947C20.7989 13.398 21.3479 12.613 22.0529 11.437C22.7589 10.261 23.2299 10.809 24.0919 10.893C24.9549 10.978 25.1899 10.81 25.8169 10.889C26.4419 10.968 25.8169 10.105 26.0529 9.24297C26.2869 8.38097 27.1499 8.53697 28.0139 8.77297C28.8759 9.00797 27.1499 7.67397 26.8369 6.96897C26.5219 6.26297 25.6599 6.96897 25.1129 5.79297C24.5599 4.61697 23.7889 3.85597 23.0829 3.75097C22.3769 3.64497 23.3079 5.24497 22.7589 6.10697C22.2079 6.96897 21.3639 6.83397 20.4989 6.83397C19.6379 6.83397 18.8379 6.10697 19.4659 5.00897C20.0919 3.91197 21.2889 4.02497 21.9159 3.08397C22.5439 2.14397 19.6859 2.22997 18.6659 1.91697C17.6459 1.60297 16.4219 1.60597 15.4029 2.38997C14.3829 3.17297 12.2019 3.41797 11.3389 3.73097C10.4769 4.04397 10.3219 3.21097 10.1659 2.58297C10.0959 2.30397 9.77794 2.21597 9.32994 2.22597C7.11788 3.45196 5.18764 5.1284 3.66394 7.14697C3.90094 7.95397 5.04894 6.95797 5.27394 6.73297C5.50894 6.49797 6.68494 6.81197 6.84094 7.67397C6.99794 8.53597 6.91994 9.47897 6.60694 10.263C6.29294 11.046 7.39094 12.144 8.01794 13.242C8.64594 14.341 9.35094 14.34 9.66494 14.34C9.97794 14.34 11.7819 15.046 11.7029 15.908C11.6249 16.771 13.3499 17.554 14.0559 18.103C14.7619 18.654 15.2079 19.195 16.1239 19.353C17.0409 19.511 18.1129 21.01 18.5829 21.168C18.9439 21.288 19.5549 21.865 19.9239 22.044C19.4389 22.658 18.4999 23.919 18.4999 24.5C18.4999 25.286 19.5249 26.521 19.9169 26.834C20.3079 27.146 21.4339 27.384 21.6669 28.167C21.9029 28.951 21.5029 31.59 20.7989 32.295C20.0909 33 19.8339 34.667 19.8339 34.667C19.8339 34.667 20.0829 35.208 20.9169 34.667C21.8389 34.07 23.3829 32.37 23.9999 32C25.2249 31.259 26.37 30.3934 27.4169 29.417C28.5149 28.398 28.1169 27.684 28.6669 26.667C29.2159 25.648 29.9259 25.694 30.8659 24.834C31.8079 23.97 31.1499 24.141 30.1299 23.748Z" fill="#5C913B"/>
</svg>
