<svg width="36" height="36" viewBox="0 0 36 36" fill="none" xmlns="http://www.w3.org/2000/svg">
<path d="M35 36V31C35 29.4087 34.3679 27.8826 33.2426 26.7574C32.1174 25.6321 30.5913 25 29 25H13C11.4087 25 9.88258 25.6321 8.75736 26.7574C7.63214 27.8826 7 29.4087 7 31V36H35Z" fill="#77B255"/>
<path d="M16.64 25.106C16.64 26 19 27.099 21 27.099C23 27.099 25.359 26 25.359 25.107V21.29H16.639V25.106H16.64Z" fill="#F7DECE"/>
<path d="M16.632 22.9731C17.848 24.3471 19.356 24.7191 20.996 24.7191C22.635 24.7191 24.142 24.3461 25.359 22.9731V19.4821H16.631V22.9731H16.632Z" fill="#EEC2AD"/>
<path d="M14.444 12.936C14.444 14.384 13.71 15.558 12.805 15.558C11.9 15.558 11.166 14.384 11.166 12.936C11.166 11.488 11.9 10.313 12.805 10.313C13.71 10.312 14.444 11.487 14.444 12.936ZM30.833 12.936C30.833 14.384 30.1 15.558 29.194 15.558C28.289 15.558 27.555 14.384 27.555 12.936C27.555 11.488 28.288 10.313 29.194 10.313C30.1 10.312 30.833 11.487 30.833 12.936Z" fill="#F7DECE"/>
<path d="M12.4771 13.96C12.4771 8.37099 16.2931 3.83899 21.0001 3.83899C25.7071 3.83899 29.522 8.37099 29.522 13.96C29.522 19.549 25.7071 24.081 21.0001 24.081C16.2941 24.08 12.4771 19.549 12.4771 13.96Z" fill="#F7DECE"/>
<path d="M21.0001 20.802C18.2461 20.802 17.4001 20.097 17.2591 19.954C17.1331 19.8343 17.0598 19.6696 17.0553 19.4959C17.0508 19.3223 17.1154 19.1539 17.2351 19.028C17.3547 18.902 17.5194 18.8287 17.6931 18.8242C17.8667 18.8197 18.0351 18.8843 18.1611 19.004C18.2131 19.041 18.8821 19.491 21.0001 19.491C23.2001 19.491 23.8361 19.006 23.8421 19.001C23.9025 18.9411 23.9743 18.8938 24.0532 18.8621C24.1322 18.8304 24.2166 18.8147 24.3017 18.8161C24.3868 18.8175 24.4707 18.8359 24.5486 18.8702C24.6264 18.9046 24.6966 18.9541 24.7551 19.016C24.8762 19.1429 24.9426 19.3124 24.94 19.4878C24.9374 19.6633 24.8659 19.8307 24.7411 19.954C24.6001 20.097 23.7541 20.802 21.0001 20.802Z" fill="#C1694F"/>
<path d="M21 0C26.648 0 30.178 4.648 30.178 8.121C30.178 11.594 29.472 12.984 28.766 11.594L27.354 8.816C27.354 8.816 23.119 8.816 21.707 7.426C21.707 7.426 23.825 11.594 19.589 7.426C19.589 7.426 20.295 10.205 16.059 6.732C16.059 6.732 13.941 8.121 13.235 11.594C13.039 12.558 11.823 11.594 11.823 8.121C11.822 4.648 14.646 0 21 0Z" fill="#292F33"/>
<path d="M17 14C16.45 14 16 13.55 16 13V12C16 11.45 16.45 11 17 11C17.55 11 18 11.45 18 12V13C18 13.55 17.55 14 17 14ZM25 14C24.45 14 24 13.55 24 13V12C24 11.45 24.45 11 25 11C25.55 11 26 11.45 26 12V13C26 13.55 25.55 14 25 14Z" fill="#662113"/>
<path d="M21.75 16.75H20.25C19.837 16.75 19.5 16.413 19.5 16C19.5 15.587 19.837 15.25 20.25 15.25H21.75C22.163 15.25 22.5 15.587 22.5 16C22.5 16.413 22.163 16.75 21.75 16.75Z" fill="#C1694F"/>
<path d="M33 35C33 35.2652 32.8946 35.5196 32.7071 35.7071C32.5196 35.8946 32.2652 36 32 36H22C21.7348 36 21.4804 35.8946 21.2929 35.7071C21.1054 35.5196 21 35.2652 21 35C21 34.7348 21.1054 34.4804 21.2929 34.2929C21.4804 34.1054 21.7348 34 22 34H32C32.2652 34 32.5196 34.1054 32.7071 34.2929C32.8946 34.4804 33 34.7348 33 35Z" fill="#E1E8ED"/>
<path d="M20.24 22H3.75898C2.23498 22 0.280983 22.771 1.28098 25.531L4.35298 34.006C4.35398 34.006 4.74998 36 6.99998 36H27L23 24.76C22.562 23.438 21.765 22 20.24 22Z" fill="#E1E8ED"/>
<path d="M19.24 22H2.75898C1.23498 22 -0.719017 22.771 0.280983 25.531L3.35298 34.006C3.35398 34.006 3.74998 36 5.99998 36H26L22 24.76C21.562 23.438 20.765 22 19.24 22Z" fill="#99AAB5"/>
<path d="M14.019 29.283C14.543 30.855 14.118 32.413 13.07 32.762C12.022 33.112 10.748 32.121 10.224 30.549C9.7 28.977 10.125 27.419 11.173 27.07C12.221 26.721 13.496 27.711 14.019 29.283ZM19 24.75H3C2.80109 24.75 2.61032 24.671 2.46967 24.5303C2.32902 24.3897 2.25 24.1989 2.25 24C2.25 23.8011 2.32902 23.6103 2.46967 23.4697C2.61032 23.329 2.80109 23.25 3 23.25H19C19.1989 23.25 19.3897 23.329 19.5303 23.4697C19.671 23.6103 19.75 23.8011 19.75 24C19.75 24.1989 19.671 24.3897 19.5303 24.5303C19.3897 24.671 19.1989 24.75 19 24.75Z" fill="#E1E8ED"/>
</svg>
