<svg width="36" height="36" viewBox="0 0 36 36" fill="none" xmlns="http://www.w3.org/2000/svg">
<path d="M30 28H26.359V24.29H17.639V28H14C12.4087 28 10.8826 28.6321 9.75736 29.7573C8.63214 30.8826 8 32.4087 8 34V36H36V34C36 30.686 33.315 28 30 28Z" fill="#FA743E"/>
<path d="M17.632 25.973C18.848 27.347 20.356 27.719 21.996 27.719C23.635 27.719 25.143 27.347 26.36 25.973V22.482H17.632V25.973V25.973Z" fill="#EEC2AD"/>
<path d="M25.152 3.30002C23.227 2.67702 19.276 2.84002 18.144 4.31202C15.2 4.36902 12.061 7.24402 11.608 10.755C11.16 14.23 11.843 15.629 12.199 18.241C12.602 21.201 14.266 22.148 15.596 22.544C17.51 25.073 19.545 24.965 22.962 24.965C29.634 24.965 32.233 20.507 32.514 12.925C32.683 8.34002 29.992 4.86602 25.152 3.30002V3.30002Z" fill="#292F33"/>
<path d="M29.547 13.243C28.901 12.349 28.075 11.629 26.263 11.375C26.943 11.686 27.594 12.762 27.679 13.357C27.764 13.952 27.849 14.433 27.311 13.838C25.156 11.456 22.809 12.394 20.484 10.939C18.86 9.92297 18.365 8.79797 18.365 8.79797C18.365 8.79797 18.167 10.298 15.704 11.827C14.99 12.27 14.138 13.257 13.666 14.715C13.326 15.763 13.432 16.697 13.432 18.293C13.432 22.953 17.273 26.871 22.01 26.871C26.747 26.871 30.588 22.918 30.588 18.293C30.586 15.395 30.283 14.263 29.547 13.243V13.243Z" fill="#F7DECE"/>
<path d="M22.961 20.677H21.055C20.9285 20.677 20.8072 20.6268 20.7177 20.5373C20.6283 20.4479 20.578 20.3265 20.578 20.2C20.578 20.0735 20.6283 19.9522 20.7177 19.8627C20.8072 19.7733 20.9285 19.723 21.055 19.723H22.961C23.0875 19.723 23.2088 19.7733 23.2983 19.8627C23.3877 19.9522 23.438 20.0735 23.438 20.2C23.438 20.3265 23.3877 20.4479 23.2983 20.5373C23.2088 20.6268 23.0875 20.677 22.961 20.677V20.677Z" fill="#C1694F"/>
<path d="M18.1949 17.341C17.9422 17.341 17.6998 17.2406 17.5211 17.0619C17.3423 16.8831 17.2419 16.6407 17.2419 16.388V15.435C17.2419 15.1822 17.3423 14.9398 17.5211 14.7611C17.6998 14.5824 17.9422 14.482 18.1949 14.482C18.4477 14.482 18.6901 14.5824 18.8688 14.7611C19.0475 14.9398 19.1479 15.1822 19.1479 15.435V16.388C19.1479 16.6407 19.0475 16.8831 18.8688 17.0619C18.6901 17.2406 18.4477 17.341 18.1949 17.341V17.341ZM25.8209 17.341C25.5682 17.341 25.3258 17.2406 25.1471 17.0619C24.9683 16.8831 24.8679 16.6407 24.8679 16.388V15.435C24.8679 15.1822 24.9683 14.9398 25.1471 14.7611C25.3258 14.5824 25.5682 14.482 25.8209 14.482C26.0737 14.482 26.3161 14.5824 26.4948 14.7611C26.6735 14.9398 26.7739 15.1822 26.7739 15.435V16.388C26.7739 16.6407 26.6735 16.8831 26.4948 17.0619C26.3161 17.2406 26.0737 17.341 25.8209 17.341Z" fill="#662113"/>
<path d="M22.134 24.657C19.38 24.657 18.534 23.952 18.393 23.809C18.3306 23.7498 18.2805 23.6788 18.2455 23.6003C18.2106 23.5217 18.1914 23.437 18.1892 23.351C18.1847 23.1773 18.2494 23.009 18.369 22.883C18.4886 22.757 18.6533 22.6837 18.827 22.6792C19.0007 22.6747 19.169 22.7394 19.295 22.859C19.347 22.896 20.016 23.346 22.134 23.346C24.334 23.346 24.97 22.861 24.976 22.856C25.0364 22.7961 25.1082 22.7489 25.1871 22.7171C25.2661 22.6854 25.3506 22.6698 25.4356 22.6712C25.5207 22.6726 25.6046 22.691 25.6825 22.7253C25.7603 22.7596 25.8305 22.8091 25.889 22.871C26.0102 22.9981 26.0766 23.1677 26.074 23.3434C26.0714 23.519 25.9999 23.6866 25.875 23.81C25.733 23.952 24.888 24.657 22.134 24.657" fill="#C1694F"/>
<path d="M33.626 6.38503C33.187 4.35903 28.693 2.52702 24.053 2.31002C24.399 2.08802 24.725 1.90802 24.977 1.83002C25.697 1.60602 24.759 0.913025 24.06 0.913025C24.06 0.913025 22.968 1.41802 22.13 2.32302C15.374 2.67202 9.91205 6.34402 10.079 7.30202C10.254 8.30602 11.311 7.29203 11.352 8.14703C11.392 9.00203 12.29 9.08502 12.29 9.08502C12.29 9.08502 15.65 8.68402 21.16 9.13602C26.67 9.58702 30.274 9.64302 31.69 10.024C32.562 10.259 32.696 8.91803 32.696 8.91803C32.696 8.91803 34.137 8.75003 33.626 6.38503V6.38503Z" fill="#66757F"/>
<path d="M27.47 36C27.191 32.133 23.379 28.046 17.83 26.121C11.127 23.796 4.44604 25.508 2.90704 29.944C2.23504 31.88 2.65504 34.015 3.89604 36H27.47Z" fill="#D99E82"/>
<path d="M23.8279 32.7832C24.1274 31.9202 23.4645 30.9064 22.3474 30.5188C21.2303 30.1312 20.0819 30.5166 19.7825 31.3796C19.4831 32.2426 20.146 33.2565 21.2631 33.644C22.3802 34.0316 23.5285 33.6462 23.8279 32.7832Z" fill="#5C913B"/>
<path d="M9.44867 34.4034C9.74809 33.5404 9.08521 32.5266 7.96809 32.139C6.85098 31.7514 5.70265 32.1369 5.40323 32.9999C5.10381 33.8629 5.76669 34.8767 6.8838 35.2643C8.00092 35.6519 9.14925 35.2664 9.44867 34.4034Z" fill="#226699"/>
<path d="M11.2966 29.4224C11.596 28.5594 10.9331 27.5456 9.816 27.158C8.69888 26.7704 7.55055 27.1558 7.25113 28.0189C6.95171 28.8819 7.61459 29.8957 8.7317 30.2833C9.84882 30.6708 10.9972 30.2854 11.2966 29.4224Z" fill="#DD2E44"/>
<path d="M18.3649 29.2787C18.6368 28.4066 17.9422 27.4143 16.8134 27.0623C15.6845 26.7103 14.549 27.1319 14.277 28.0039C14.0051 28.876 14.6998 29.8683 15.8286 30.2203C16.9574 30.5723 18.093 30.1507 18.3649 29.2787Z" fill="#FFCC4D"/>
<path d="M0.999945 30C1.07794 28.792 2.39394 26.816 3.99994 27C5.66494 27.19 4.12894 30.129 3.99994 31C3.87094 31.871 4.14394 33.938 2.99994 34C1.45394 34.084 0.859945 32.186 0.999945 30Z" fill="#F7DECE"/>
</svg>
