<svg width="36" height="36" viewBox="0 0 36 36" fill="none" xmlns="http://www.w3.org/2000/svg">
<path d="M31 2H5C4.20435 2 3.44129 2.31607 2.87868 2.87868C2.31607 3.44129 2 4.20435 2 5V31C2 31.7956 2.31607 32.5587 2.87868 33.1213C3.44129 33.6839 4.20435 34 5 34H31C31.7956 34 32.5587 33.6839 33.1213 33.1213C33.6839 32.5587 34 31.7956 34 31V5C34 4.20435 33.6839 3.44129 33.1213 2.87868C32.5587 2.31607 31.7956 2 31 2Z" fill="#CCD6DD"/>
<path d="M31 1H5C3.93913 1 2.92172 1.42143 2.17157 2.17157C1.42143 2.92172 1 3.93913 1 5V31C1 32.0609 1.42143 33.0783 2.17157 33.8284C2.92172 34.5786 3.93913 35 5 35H31C32.0609 35 33.0783 34.5786 33.8284 33.8284C34.5786 33.0783 35 32.0609 35 31V5C35 3.93913 34.5786 2.92172 33.8284 2.17157C33.0783 1.42143 32.0609 1 31 1ZM31 3C32.103 3 33 3.897 33 5V9H27V3H31ZM27 19H33V25H27V19ZM27 17V11H33V17H27ZM25 3V9H19V3H25ZM19 11H25V17H19V11ZM19 19H25V25H19V19ZM17 3V9H11V3H17ZM11 11H17V17H11V11ZM11 19H17V25H11V19ZM3 5C3 3.897 3.897 3 5 3H9V9H3V5ZM3 11H9V17H3V11ZM3 19H9V25H3V19ZM5 33C3.897 33 3 32.103 3 31V27H9V33H5ZM11 33V27H17V33H11ZM19 33V27H25V33H19ZM31 33H27V27H33V31C33 32.103 32.103 33 31 33Z" fill="#E1E8ED"/>
<path d="M4.99795 33C4.6521 32.9996 4.31225 32.9096 4.01158 32.7386C3.71092 32.5677 3.45971 32.3217 3.2825 32.0247C3.10529 31.7277 3.00812 31.3899 3.00049 31.0441C2.99285 30.6983 3.07502 30.3565 3.23895 30.052L10.239 17.052C10.3866 16.7773 10.5965 16.541 10.8518 16.362C11.1071 16.1829 11.4008 16.0661 11.7093 16.0208C12.0178 15.9755 12.3327 16.003 12.6287 16.1012C12.9247 16.1993 13.1936 16.3653 13.414 16.586L19.49 22.662L29.228 4.07195C29.4742 3.60212 29.897 3.24935 30.4034 3.09126C30.9097 2.93317 31.4581 2.9827 31.9279 3.22895C32.3978 3.4752 32.7505 3.89801 32.9086 4.40436C33.0667 4.91071 33.0172 5.45912 32.771 5.92895L21.771 26.929C21.6254 27.2069 21.4165 27.4468 21.1611 27.6292C20.9058 27.8116 20.6111 27.9314 20.301 27.979C19.9908 28.0249 19.6743 27.998 19.3764 27.9002C19.0785 27.8025 18.8076 27.6367 18.585 27.416L12.485 21.3169L6.76095 31.948C6.5896 32.2663 6.33517 32.5322 6.02473 32.7174C5.7143 32.9027 5.35946 33.0003 4.99795 33Z" fill="#DD2E44"/>
</svg>
