<svg width="36" height="36" viewBox="0 0 36 36" fill="none" xmlns="http://www.w3.org/2000/svg">
<path d="M24.625 19.219L20 14.32V3C20 2.46957 19.7893 1.96086 19.4142 1.58579C19.0392 1.21071 18.5305 1 18 1C17.4696 1 16.9609 1.21071 16.5858 1.58579C16.2107 1.96086 16 2.46957 16 3V14.32L11.375 19.22C11.2683 19.3005 11.1787 19.4016 11.1117 19.5174C11.0447 19.6331 11.0016 19.7611 10.985 19.8938C10.9683 20.0265 10.9784 20.1612 11.0147 20.2899C11.051 20.4186 11.1128 20.5387 11.1964 20.6431C11.2799 20.7476 11.3835 20.8342 11.5012 20.8978C11.6188 20.9615 11.7479 21.0009 11.8811 21.0138C12.0142 21.0266 12.1485 21.0126 12.2761 20.9727C12.4037 20.9327 12.522 20.8675 12.624 20.781C12.625 20.781 16 17 18 17C20 17 23.375 20.781 23.375 20.781C23.5832 20.9351 23.8429 21.0025 24.0997 20.9691C24.3565 20.9358 24.5904 20.8041 24.7522 20.6019C24.914 20.3997 24.9912 20.1427 24.9675 19.8848C24.9437 19.6269 24.821 19.3883 24.625 19.219Z" fill="#F4ABBA"/>
<path d="M24.781 19.625C24.6151 19.832 24.3739 19.9647 24.1103 19.9939C23.8467 20.0232 23.5822 19.9466 23.375 19.781C23.375 19.781 20 16 18 16C16 16 12.625 19.781 12.625 19.781C12.4478 19.9232 12.2272 20.0005 12 20C11.85 20.0003 11.7018 19.9668 11.5666 19.9019C11.4313 19.8369 11.3125 19.7423 11.219 19.625C11.186 19.583 11.175 19.534 11.149 19.489C11.0568 19.6398 11.0065 19.8125 11.0033 19.9892C11.0002 20.1659 11.0442 20.3403 11.131 20.4943C11.2177 20.6483 11.344 20.7764 11.4967 20.8653C11.6495 20.9542 11.8232 21.0007 12 21C12.219 21 12.44 20.929 12.624 20.781C12.625 20.781 16 17 18 17C20 17 23.375 20.781 23.375 20.781C23.5822 20.9466 23.8467 21.0232 24.1103 20.9939C24.3739 20.9647 24.6151 20.832 24.781 20.625C24.9072 20.4654 24.9815 20.271 24.994 20.068C25.0065 19.8649 24.9566 19.6629 24.851 19.489C24.825 19.534 24.814 19.584 24.781 19.625Z" fill="#EA596E"/>
<path d="M13.36 9.02297C12.549 6.36697 9.479 5.59597 5.281 11.162C3.439 13.604 1.726 17.756 1.782 21.899C1.836 25.895 0.351 28.687 1.717 32.489C2.35 34.251 7.836 35.4 11.875 32.905C13.566 31.861 14.667 30.648 14.37 28.925C13.883 26.099 13.875 24.082 14.251 20.371C14.726 15.677 14.323 12.179 13.36 9.02297Z" fill="#DD2E44"/>
<path d="M13.36 9.02297C12.549 6.36697 9.479 5.59597 5.281 11.162C3.439 13.604 1.726 17.756 1.782 21.899C1.836 25.895 0.351 28.687 1.717 32.489C3.262 30.053 7.717 32.667 11.757 30.172C13.448 29.128 14.037 26.612 13.999 25.479C13.95 24.015 14.04 22.462 14.252 20.37C14.726 15.677 14.323 12.179 13.36 9.02297Z" fill="#EA596E"/>
<path d="M22 9.07497C22.04 6.29797 25.003 5.93397 29.459 10.033C31.942 12.317 33.503 16.79 34.33 21.617C35.162 26.473 34.717 31.799 34.211 33.142C33.597 34.77 28.84 35.436 25.538 33.261C23.41 31.86 22.083 29.398 22.508 26.489C23.637 18.766 21.855 19.241 22 9.07497Z" fill="#DD2E44"/>
<path d="M22 9.07498C22.04 6.29798 25.003 5.93398 29.459 10.033C31.942 12.317 33.503 16.79 34.33 21.617C35.162 26.473 34.717 31.799 34.211 33.142C33.914 30.053 30.528 31.716 26.904 30.112C25.815 29.63 25.389 29.186 25.478 26.785C25.597 23.577 22.88 24.587 22.88 22.445C22.881 18.475 21.886 17.048 22 9.07498ZM19.75 3.51598C19.6844 3.51605 19.6195 3.50228 19.5595 3.47557C19.4995 3.44887 19.4459 3.40982 19.402 3.36098C19.39 3.34798 18.958 2.90998 18 2.90998C17.042 2.90998 16.611 3.34698 16.593 3.36598C16.5081 3.45509 16.3916 3.50732 16.2685 3.51143C16.1455 3.51555 16.0257 3.47122 15.935 3.38798C15.8449 3.30542 15.791 3.19063 15.785 3.06855C15.779 2.94647 15.8214 2.82696 15.903 2.73598C15.973 2.65798 16.626 1.97498 18 1.97498C19.374 1.97498 20.027 2.65798 20.098 2.73498C20.1585 2.80223 20.1982 2.88558 20.2124 2.97493C20.2265 3.06429 20.2144 3.15582 20.1776 3.23845C20.1408 3.32109 20.0808 3.39128 20.0049 3.44053C19.929 3.48978 19.8405 3.51599 19.75 3.51598ZM19.75 6.51598C19.6844 6.51605 19.6195 6.50228 19.5595 6.47557C19.4995 6.44887 19.4459 6.40982 19.402 6.36098C19.39 6.34798 18.958 5.90998 18 5.90998C17.042 5.90998 16.611 6.34698 16.593 6.36598C16.416 6.55098 16.122 6.56198 15.935 6.38798C15.748 6.21398 15.732 5.92598 15.903 5.73598C15.973 5.65798 16.626 4.97498 18 4.97498C19.374 4.97498 20.027 5.65798 20.098 5.73498C20.1585 5.80223 20.1982 5.88558 20.2124 5.97493C20.2265 6.06429 20.2144 6.15582 20.1776 6.23845C20.1408 6.32109 20.0808 6.39128 20.0049 6.44053C19.929 6.48978 19.8405 6.51599 19.75 6.51598ZM19.75 9.51598C19.6844 9.51605 19.6195 9.50228 19.5595 9.47557C19.4995 9.44887 19.4459 9.40982 19.402 9.36098C19.39 9.34798 18.958 8.90998 18 8.90998C17.042 8.90998 16.611 9.34698 16.593 9.36598C16.5081 9.45509 16.3916 9.50732 16.2685 9.51143C16.1455 9.51555 16.0257 9.47122 15.935 9.38798C15.8449 9.30542 15.791 9.19063 15.785 9.06855C15.779 8.94647 15.8214 8.82696 15.903 8.73598C15.973 8.65798 16.626 7.97498 18 7.97498C19.374 7.97498 20.027 8.65798 20.098 8.73498C20.1585 8.80223 20.1982 8.88558 20.2124 8.97493C20.2265 9.06429 20.2144 9.15582 20.1776 9.23845C20.1408 9.32109 20.0808 9.39128 20.0049 9.44053C19.929 9.48978 19.8405 9.51599 19.75 9.51598ZM19.75 12.516C19.6844 12.516 19.6195 12.5023 19.5595 12.4756C19.4995 12.4489 19.4459 12.4098 19.402 12.361C19.39 12.348 18.958 11.91 18 11.91C17.042 11.91 16.611 12.347 16.593 12.366C16.416 12.551 16.122 12.562 15.935 12.388C15.748 12.214 15.732 11.926 15.903 11.736C15.973 11.658 16.626 10.975 18 10.975C19.374 10.975 20.027 11.658 20.098 11.735C20.1585 11.8022 20.1982 11.8856 20.2124 11.9749C20.2265 12.0643 20.2144 12.1558 20.1776 12.2385C20.1408 12.3211 20.0808 12.3913 20.0049 12.4405C19.929 12.4898 19.8405 12.516 19.75 12.516Z" fill="#EA596E"/>
</svg>
