<svg width="36" height="36" viewBox="0 0 36 36" fill="none" xmlns="http://www.w3.org/2000/svg">
<path d="M23.0131 24.322L17.4671 18.776L11.9201 13.23C11.9201 13.23 12.3751 24.413 0.737061 27.323C0.737061 27.323 1.76906 29.81 4.10106 32.142C6.43306 34.474 8.92006 35.506 8.92006 35.506C11.8301 23.867 23.0131 24.322 23.0131 24.322Z" fill="#77B255"/>
<path d="M13.83 16.594C13.103 20.231 8.73804 26.05 8.73804 26.05L17.466 17.322C20.375 14.413 13.83 16.594 13.83 16.594ZM26.195 23.14C26.195 23.14 15.285 23.867 8.73804 28.959C16.739 20.958 20.376 20.231 20.376 20.231L26.195 23.14Z" fill="#5C913B"/>
<path d="M30.1559 28.192C30.4969 28.2173 30.8392 28.1689 31.1598 28.0502C31.4804 27.9315 31.7717 27.7452 32.0139 27.504C32.464 27.0539 32.7168 26.4435 32.7168 25.807C32.7168 25.1705 32.464 24.5601 32.0139 24.11C31.9289 24.025 31.8339 23.956 31.7399 23.886C32.1646 23.7847 32.5531 23.5685 32.8629 23.261C33.1602 22.9608 33.3719 22.5865 33.4759 22.177C33.8853 22.0726 34.2595 21.861 34.5599 21.564C35.01 21.1139 35.2628 20.5035 35.2628 19.867C35.2628 19.2305 35.01 18.6201 34.5599 18.17C34.8679 17.8619 35.0862 17.4758 35.1915 17.0531C35.2967 16.6304 35.285 16.1871 35.1574 15.7705C35.0299 15.354 34.7914 14.9801 34.4675 14.6888C34.1437 14.3975 33.7466 14.1998 33.3189 14.117C33.5361 13.6701 33.6089 13.1668 33.5272 12.6767C33.4455 12.1867 33.2133 11.7342 32.8629 11.382C32.5531 11.0745 32.1646 10.8582 31.7399 10.757C31.8339 10.687 31.9289 10.618 32.0139 10.533C32.464 10.0829 32.7168 9.47248 32.7168 8.83598C32.7168 8.19949 32.464 7.58907 32.0139 7.13898C31.662 6.78819 31.2095 6.55577 30.7193 6.47405C30.2291 6.39233 29.7257 6.46535 29.2789 6.68298C29.1685 6.10895 28.8512 5.59542 28.3873 5.23983C27.9233 4.88425 27.3449 4.71137 26.7619 4.75398C26.7872 4.41306 26.7389 4.07068 26.6202 3.75009C26.5015 3.4295 26.3152 3.13821 26.0739 2.89598C25.6239 2.44593 25.0134 2.1931 24.3769 2.1931C23.7404 2.1931 23.13 2.44593 22.6799 2.89598C22.328 2.54519 21.8755 2.31277 21.3853 2.23105C20.8951 2.14933 20.3917 2.22235 19.9449 2.43998C19.8387 1.89306 19.5456 1.40012 19.1157 1.0457C18.6859 0.691269 18.1461 0.497437 17.5889 0.497437C17.0318 0.497437 16.492 0.691269 16.0622 1.0457C15.6323 1.40012 15.3391 1.89306 15.2329 2.43998C14.7861 2.2228 14.2828 2.15001 13.7927 2.23172C13.3026 2.31343 12.8501 2.54558 12.4979 2.89598C12.1904 3.20582 11.9742 3.59436 11.8729 4.01898C11.8029 3.92498 11.7339 3.82998 11.6489 3.74498C11.1989 3.29493 10.5884 3.0421 9.95194 3.0421C9.31545 3.0421 8.70502 3.29493 8.25494 3.74498C7.9039 4.09656 7.67115 4.5488 7.58907 5.0388C7.50699 5.5288 7.57964 6.0322 7.79694 6.47898C7.36928 6.56181 6.97223 6.75947 6.64835 7.05077C6.32446 7.34206 6.08597 7.71602 5.95844 8.13254C5.8309 8.54906 5.81913 8.99243 5.92439 9.41513C6.02965 9.83783 6.24797 10.2239 6.55594 10.532C6.87694 10.853 7.26794 11.056 7.67894 11.157C7.58494 11.227 7.48994 11.296 7.40494 11.381C7.09697 11.6891 6.87865 12.0751 6.77339 12.4978C6.66813 12.9205 6.6799 13.3639 6.80744 13.7804C6.93497 14.1969 7.17346 14.5709 7.49735 14.8622C7.82123 15.1535 8.21828 15.3512 8.64594 15.434C8.42876 15.8808 8.35597 16.3842 8.43768 16.8742C8.51939 17.3643 8.75153 17.8168 9.10194 18.169C9.45391 18.5198 9.90643 18.7522 10.3966 18.8339C10.8868 18.9156 11.3902 18.8426 11.8369 18.625C11.9228 19.0746 12.1366 19.4898 12.4527 19.8208C12.7688 20.1518 13.1738 20.3845 13.6189 20.491C13.5249 20.561 13.4299 20.63 13.3449 20.715C12.8949 21.1651 12.6421 21.7755 12.6421 22.412C12.6421 23.0485 12.8949 23.6589 13.3449 24.109C13.6969 24.4598 14.1494 24.6922 14.6396 24.7739C15.1298 24.8556 15.6332 24.7826 16.0799 24.565C16.1426 24.8906 16.2724 25.1996 16.461 25.4723C16.6497 25.745 16.893 25.9754 17.1756 26.1489C17.4582 26.3223 17.7739 26.4351 18.1024 26.4798C18.431 26.5246 18.7652 26.5005 19.0839 26.409C19.1479 26.493 19.2079 26.578 19.2849 26.655C19.7949 27.165 20.4759 27.387 21.1429 27.343C21.1176 27.6839 21.166 28.0263 21.2847 28.3469C21.4034 28.6675 21.5897 28.9588 21.8309 29.201C22.281 29.651 22.8914 29.9039 23.5279 29.9039C24.1644 29.9039 24.7749 29.651 25.2249 29.201C25.3099 29.116 25.3789 29.021 25.4489 28.927C25.5499 29.338 25.7529 29.729 26.0739 30.05C26.524 30.5 27.1344 30.7529 27.7709 30.7529C28.4074 30.7529 29.0179 30.5 29.4679 30.05C29.9779 29.54 30.1999 28.859 30.1559 28.192Z" fill="#3E721D"/>
<path d="M10.92 7.22601C11.7721 7.22601 12.463 6.53519 12.463 5.68301C12.463 4.83084 11.7721 4.14001 10.92 4.14001C10.0678 4.14001 9.37695 4.83084 9.37695 5.68301C9.37695 6.53519 10.0678 7.22601 10.92 7.22601Z" fill="#5C913B"/>
<path d="M15.2849 7.22601C16.1371 7.22601 16.8279 6.53519 16.8279 5.68301C16.8279 4.83084 16.1371 4.14001 15.2849 4.14001C14.4328 4.14001 13.7419 4.83084 13.7419 5.68301C13.7419 6.53519 14.4328 7.22601 15.2849 7.22601Z" fill="#5C913B"/>
<path d="M18.194 4.31696C19.0462 4.31696 19.737 3.62613 19.737 2.77396C19.737 1.92178 19.0462 1.23096 18.194 1.23096C17.3418 1.23096 16.651 1.92178 16.651 2.77396C16.651 3.62613 17.3418 4.31696 18.194 4.31696Z" fill="#5C913B"/>
<path d="M21.831 6.49896C22.6831 6.49896 23.374 5.80814 23.374 4.95596C23.374 4.10379 22.6831 3.41296 21.831 3.41296C20.9788 3.41296 20.288 4.10379 20.288 4.95596C20.288 5.80814 20.9788 6.49896 21.831 6.49896Z" fill="#5C913B"/>
<path d="M24.74 6.49896C25.5922 6.49896 26.283 5.80814 26.283 4.95596C26.283 4.10379 25.5922 3.41296 24.74 3.41296C23.8878 3.41296 23.197 4.10379 23.197 4.95596C23.197 5.80814 23.8878 6.49896 24.74 6.49896Z" fill="#5C913B"/>
<path d="M25.4681 8.68097C26.3202 8.68097 27.011 7.99015 27.011 7.13797C27.011 6.2858 26.3202 5.59497 25.4681 5.59497C24.6159 5.59497 23.925 6.2858 23.925 7.13797C23.925 7.99015 24.6159 8.68097 25.4681 8.68097Z" fill="#5C913B"/>
<path d="M27.6501 9.40802C28.5022 9.40802 29.1931 8.7172 29.1931 7.86502C29.1931 7.01285 28.5022 6.32202 27.6501 6.32202C26.7979 6.32202 26.1071 7.01285 26.1071 7.86502C26.1071 8.7172 26.7979 9.40802 27.6501 9.40802Z" fill="#5C913B"/>
<path d="M30.559 10.863C31.4112 10.863 32.102 10.1722 32.102 9.31998C32.102 8.4678 31.4112 7.77698 30.559 7.77698C29.7068 7.77698 29.016 8.4678 29.016 9.31998C29.016 10.1722 29.7068 10.863 30.559 10.863Z" fill="#5C913B"/>
<path d="M29.8319 13.045C30.6841 13.045 31.3749 12.3542 31.3749 11.502C31.3749 10.6498 30.6841 9.95898 29.8319 9.95898C28.9798 9.95898 28.2889 10.6498 28.2889 11.502C28.2889 12.3542 28.9798 13.045 29.8319 13.045Z" fill="#5C913B"/>
<path d="M32.0139 16.6819C32.8661 16.6819 33.5569 15.9911 33.5569 15.1389C33.5569 14.2868 32.8661 13.5959 32.0139 13.5959C31.1618 13.5959 30.4709 14.2868 30.4709 15.1389C30.4709 15.9911 31.1618 16.6819 32.0139 16.6819Z" fill="#5C913B"/>
<path d="M32.741 20.319C33.5932 20.319 34.284 19.6282 34.284 18.776C34.284 17.9239 33.5932 17.233 32.741 17.233C31.8888 17.233 31.198 17.9239 31.198 18.776C31.198 19.6282 31.8888 20.319 32.741 20.319Z" fill="#5C913B"/>
<path d="M26.922 13.045C27.7742 13.045 28.465 12.3542 28.465 11.502C28.465 10.6498 27.7742 9.95898 26.922 9.95898C26.0699 9.95898 25.379 10.6498 25.379 11.502C25.379 12.3542 26.0699 13.045 26.922 13.045Z" fill="#5C913B"/>
<path d="M24.013 10.136C24.8651 10.136 25.556 9.44522 25.556 8.59305C25.556 7.74087 24.8651 7.05005 24.013 7.05005C23.1608 7.05005 22.47 7.74087 22.47 8.59305C22.47 9.44522 23.1608 10.136 24.013 10.136Z" fill="#5C913B"/>
<path d="M20.376 7.95404C21.2282 7.95404 21.919 7.26322 21.919 6.41104C21.919 5.55887 21.2282 4.86804 20.376 4.86804C19.5238 4.86804 18.833 5.55887 18.833 6.41104C18.833 7.26322 19.5238 7.95404 20.376 7.95404Z" fill="#5C913B"/>
<path d="M16.012 9.40802C16.8642 9.40802 17.555 8.7172 17.555 7.86502C17.555 7.01285 16.8642 6.32202 16.012 6.32202C15.1598 6.32202 14.469 7.01285 14.469 7.86502C14.469 8.7172 15.1598 9.40802 16.012 9.40802Z" fill="#5C913B"/>
<path d="M17.4669 7.95404C18.3191 7.95404 19.01 7.26322 19.01 6.41104C19.01 5.55887 18.3191 4.86804 17.4669 4.86804C16.6148 4.86804 15.924 5.55887 15.924 6.41104C15.924 7.26322 16.6148 7.95404 17.4669 7.95404Z" fill="#5C913B"/>
<path d="M13.102 10.863C13.9541 10.863 14.645 10.1722 14.645 9.31998C14.645 8.4678 13.9541 7.77698 13.102 7.77698C12.2498 7.77698 11.559 8.4678 11.559 9.31998C11.559 10.1722 12.2498 10.863 13.102 10.863Z" fill="#5C913B"/>
<path d="M20.376 12.3181C21.2282 12.3181 21.919 11.6272 21.919 10.7751C21.919 9.92288 21.2282 9.23206 20.376 9.23206C19.5238 9.23206 18.833 9.92288 18.833 10.7751C18.833 11.6272 19.5238 12.3181 20.376 12.3181Z" fill="#5C913B"/>
<path d="M25.4681 17.409C26.3202 17.409 27.011 16.7182 27.011 15.866C27.011 15.0138 26.3202 14.323 25.4681 14.323C24.6159 14.323 23.925 15.0138 23.925 15.866C23.925 16.7182 24.6159 17.409 25.4681 17.409Z" fill="#5C913B"/>
<path d="M26.922 21.774C27.7742 21.774 28.465 21.0832 28.465 20.231C28.465 19.3788 27.7742 18.688 26.922 18.688C26.0699 18.688 25.379 19.3788 25.379 20.231C25.379 21.0832 26.0699 21.774 26.922 21.774Z" fill="#5C913B"/>
</svg>
